# Blender 3.4.1
# www.blender.org
mtllib Dining_Table.mtl
o Cube
v 2.996769 4.994738 -5.611601
v 2.875665 3.917741 -4.636673
v 2.996769 4.994738 5.611601
v 2.875665 3.917741 4.636673
v -2.996769 4.994738 -5.611601
v -2.427642 3.922366 -5.272045
v -2.996769 4.994738 5.611601
v -2.875644 3.917383 4.647263
v -3.257311 4.616924 -5.611602
v -3.257311 4.616924 5.611602
v 3.257311 4.616924 -5.611602
v 3.257311 4.616924 5.611602
v -2.454283 4.374357 -5.317941
v -2.902872 4.379341 4.694170
v 2.902851 4.378983 -4.683508
v 2.902851 4.378983 4.683508
v 2.360043 4.368911 5.317388
v 2.454283 4.374357 -5.317941
v 2.334044 3.927813 5.272598
v 2.427642 3.922366 -5.272045
v 2.904111 4.400356 -5.320581
v -2.902872 4.379341 -4.694170
v 2.874405 3.896368 -5.269405
v -2.875644 3.917383 -4.647263
v 3.026410 4.385939 -5.391571
v 2.996705 3.881951 -5.340395
v 3.025150 4.364566 -4.754498
v 2.997964 3.903324 -4.707663
v 2.576582 4.359941 -5.388931
v 2.549941 3.907949 -5.343035
v -2.904111 4.400356 -5.320581
v -2.360043 4.368911 5.317388
v -2.874405 3.896368 -5.269405
v -2.334044 3.927813 5.272598
v -2.904111 4.400356 5.320581
v 2.904111 4.400356 5.320581
v -2.874405 3.896368 5.269405
v 2.874405 3.896368 5.269405
v 2.997077 3.881907 5.340611
v 3.026783 4.385895 5.391787
v 2.998337 3.903280 4.707879
v 3.025523 4.364522 4.754714
v 2.456715 3.913352 5.343804
v 2.482714 4.354450 5.388594
v -3.043034 4.383979 -5.401220
v -3.013329 3.879991 -5.350045
v -2.593206 4.357981 -5.398580
v -2.566565 3.905990 -5.352684
v -3.041795 4.362964 -4.774809
v -3.014567 3.901006 -4.727901
v -2.990370 3.882698 5.336718
v -3.020076 4.386686 5.387894
v -2.991609 3.903713 4.714575
v -3.018837 4.365671 4.761483
v -2.450009 3.914143 5.339911
v -2.476008 4.355240 5.384701
v -2.874405 3.896368 -4.635700
v -2.874405 3.896368 4.631362
v 2.874405 3.896368 4.651566
v 2.874405 3.896368 -4.616204
v -2.329740 3.896368 5.269405
v 2.313363 3.896368 5.269405
v 2.288403 3.896368 -5.269405
v -2.340071 3.896368 -5.269405
v -2.302578 3.896368 4.646389
v 2.299395 3.896368 4.664261
v -2.362049 3.896368 -4.629111
v 2.300885 3.896368 -4.640230
v -2.332704 0.086709 -5.208951
v -2.867038 0.086709 -5.208951
v -2.867038 0.086709 -4.575246
v -2.354681 0.086709 -4.568656
v 2.880768 0.162491 -4.616204
v 2.880768 0.162491 -5.269405
v 2.294765 0.162491 -5.269405
v 2.307247 0.162491 -4.640230
v 2.313363 0.187942 5.269405
v 2.874405 0.187942 5.269405
v 2.874405 0.187942 4.651566
v 2.299395 0.187942 4.664261
v -2.874405 0.119858 4.631362
v -2.874405 0.119858 5.269405
v -2.329740 0.119858 5.269405
v -2.302578 0.119858 4.646389
v -2.874405 4.590115 -4.635700
v -2.874405 4.590115 4.631362
v 2.874405 4.590115 4.651566
v 2.874405 4.590115 -4.616204
v -2.329740 4.590115 5.269405
v 2.313363 4.590115 5.269405
v 2.288403 4.590115 -5.269405
v -2.340071 4.590115 -5.269405
v -2.302578 4.590115 4.646389
v 2.299395 4.590115 4.664261
v -2.362049 4.590115 -4.629111
v 2.300885 4.590115 -4.640230
vn -0.0000 1.0000 -0.0000
vn -0.0000 -0.0000 1.0000
vn -0.8232 0.5677 -0.0000
vn -0.0000 -0.0159 -0.9999
vn 0.8232 0.5677 -0.0000
vn -0.0000 -0.0000 -1.0000
vn -0.5227 -0.8525 -0.0000
vn -0.0000 -0.8022 -0.5970
vn -0.0000 -0.8022 0.5970
vn 0.5227 -0.8525 -0.0000
vn -0.9983 -0.0588 -0.0000
vn -0.0000 -0.1010 -0.9949
vn -0.0000 -0.1010 0.9949
vn 0.9983 -0.0588 -0.0000
vn 0.5062 0.0575 0.8605
vn -0.5062 -0.0575 0.8605
vn 0.0976 -0.9946 0.0338
vn -0.0584 -0.9932 0.1011
vn -0.5062 -0.0575 -0.8605
vn 0.1362 0.9901 0.0335
vn -0.0569 0.9548 -0.2919
vn -0.0976 -0.9946 0.0338
vn -0.5062 0.0575 0.8605
vn -0.5062 0.0575 -0.8605
vn -0.1362 0.9901 -0.0335
vn -0.0569 0.9548 0.2919
vn 0.1362 0.9901 -0.0335
vn -0.0584 -0.9932 -0.1011
vn -0.0976 -0.9946 -0.0338
vn 0.5062 0.0575 -0.8605
vn 0.0569 0.9548 -0.2919
vn 0.0584 -0.9932 0.1011
vn -0.1362 0.9901 0.0335
vn 0.5062 -0.0575 -0.8605
vn 0.0569 0.9548 0.2919
vn 0.5062 -0.0575 0.8605
vn 0.0976 -0.9946 -0.0338
vn 0.0584 -0.9932 -0.1011
vn -0.0000 -1.0000 -0.0000
vn -0.0221 -0.0000 -0.9998
vn 0.9991 -0.0000 0.0436
vn -0.9997 -0.0000 0.0231
vn 1.0000 0.0017 -0.0000
vn -0.0129 0.0158 0.9998
vn 0.9994 0.0025 0.0343
vn -1.0000 -0.0019 -0.0000
vn -0.0419 -0.0001 0.9991
vn -0.9998 -0.0017 0.0198
vn 1.0000 -0.0000 -0.0000
vn -1.0000 -0.0000 -0.0000
vn 0.0263 -0.0000 -0.9997
vn -0.9998 -0.0000 0.0198
vn -0.0129 -0.0000 0.9999
vn 0.9994 -0.0000 0.0343
vn -0.0419 -0.0000 0.9991
vt 0.625000 0.500000
vt 0.367357 0.521717
vt 0.625000 0.750000
vt 0.367357 0.728283
vt 0.875000 0.500000
vt 0.625000 0.250000
vt 0.150927 0.507564
vt 0.875000 0.750000
vt 0.625000 1.000000
vt 0.625000 0.000000
vt 0.132644 0.728519
vt 0.375000 0.250000
vt 0.125000 0.500000
vt 0.375000 1.000000
vt 0.375000 0.000000
vt 0.125000 0.750000
vt 0.375000 0.500000
vt 0.375000 0.750000
vt 0.149840 0.506541
vt 0.131533 0.729564
vt 0.368466 0.520673
vt 0.368466 0.729326
vt 0.346314 0.743446
vt 0.350160 0.506541
vt 0.345253 0.742449
vt 0.349073 0.507564
vt 0.368517 0.506482
vt 0.131533 0.520436
vt 0.367305 0.507622
vt 0.132644 0.521481
vt 0.368517 0.506482
vt 0.367305 0.507622
vt 0.368466 0.520673
vt 0.367357 0.521717
vt 0.350160 0.506541
vt 0.349073 0.507564
vt 0.131483 0.506482
vt 0.153686 0.743446
vt 0.132695 0.507622
vt 0.154747 0.742449
vt 0.131483 0.743517
vt 0.368517 0.743517
vt 0.132695 0.742377
vt 0.367305 0.742377
vt 0.367305 0.742377
vt 0.368517 0.743517
vt 0.367357 0.728283
vt 0.368466 0.729326
vt 0.345253 0.742449
vt 0.346314 0.743446
vt 0.131483 0.506482
vt 0.132695 0.507622
vt 0.149840 0.506541
vt 0.150927 0.507564
vt 0.131533 0.520436
vt 0.132644 0.521481
vt 0.132695 0.742377
vt 0.131483 0.743517
vt 0.132644 0.728519
vt 0.131533 0.729564
vt 0.154747 0.742449
vt 0.153686 0.743446
vt 0.132695 0.521738
vt 0.132695 0.728165
vt 0.367305 0.728615
vt 0.367305 0.522173
vt 0.154923 0.742377
vt 0.344409 0.742377
vt 0.343390 0.507622
vt 0.154501 0.507622
vt 0.156031 0.728500
vt 0.343839 0.728898
vt 0.153604 0.521885
vt 0.343900 0.521637
vt 0.154501 0.507622
vt 0.132695 0.507622
vt 0.132695 0.521738
vt 0.153604 0.521885
vt 0.367305 0.522173
vt 0.367305 0.507622
vt 0.343390 0.507622
vt 0.343900 0.521637
vt 0.344409 0.742377
vt 0.367305 0.742377
vt 0.367305 0.728615
vt 0.343839 0.728898
vt 0.132695 0.728165
vt 0.132695 0.742377
vt 0.154923 0.742377
vt 0.156031 0.728500
vt 0.132695 0.521738
vt 0.132695 0.728165
vt 0.367305 0.728615
vt 0.367305 0.522173
vt 0.154923 0.742377
vt 0.344409 0.742377
vt 0.343390 0.507622
vt 0.154501 0.507622
vt 0.156031 0.728500
vt 0.343839 0.728898
vt 0.153604 0.521885
vt 0.343900 0.521637
s 0
usemtl Material
f 1/1/1 5/5/1 7/8/1 3/3/1
f 12/18/2 3/3/2 7/9/2 10/14/2
f 10/15/3 7/10/3 5/6/3 9/12/3
f 33/39/4 64/70/4 69/75/4 70/76/4
f 11/17/5 1/1/5 3/3/5 12/18/5
f 9/12/6 5/6/6 1/1/6 11/17/6
f 31/37/7 35/41/7 10/16/7 9/13/7
f 21/27/8 31/37/8 9/13/8 11/17/8
f 35/41/9 36/42/9 12/18/9 10/16/9
f 36/42/10 21/27/10 11/17/10 12/18/10
f 24/30/11 8/11/11 14/20/11 22/28/11
f 20/26/12 6/7/12 13/19/12 18/24/12
f 34/40/13 19/25/13 17/23/13 32/38/13
f 4/4/14 2/2/14 15/21/14 16/22/14
f 16/22/14 15/21/14 21/27/14 36/42/14
f 2/2/14 4/4/14 38/44/14 59/65/14 60/66/14 23/29/14
f 15/21/15 2/2/15 28/34/15 27/33/15
f 17/23/16 19/25/16 43/49/16 44/50/16
f 18/24/12 13/19/12 31/37/12 21/27/12
f 6/7/12 20/26/12 23/29/12 63/69/12 64/70/12 33/39/12
f 33/39/17 24/30/17 50/56/17 46/52/17
f 23/29/18 20/26/18 30/36/18 26/32/18
f 27/33/14 28/34/14 26/32/14 25/31/14
f 30/36/12 29/35/12 25/31/12 26/32/12
f 20/26/19 18/24/19 29/35/19 30/36/19
f 21/27/20 15/21/20 27/33/20 25/31/20
f 18/24/21 21/27/21 25/31/21 29/35/21
f 2/2/22 23/29/22 26/32/22 28/34/22
f 22/28/11 14/20/11 35/41/11 31/37/11
f 8/11/11 24/30/11 33/39/11 57/63/11 58/64/11 37/43/11
f 24/30/23 22/28/23 49/55/23 50/56/23
f 14/20/24 8/11/24 53/59/24 54/60/24
f 32/38/13 17/23/13 36/42/13 35/41/13
f 19/25/13 34/40/13 37/43/13 61/67/13 62/68/13 38/44/13
f 35/41/25 14/20/25 54/60/25 52/58/25
f 36/42/26 17/23/26 44/50/26 40/46/26
f 41/47/14 42/48/14 40/46/14 39/45/14
f 44/50/13 43/49/13 39/45/13 40/46/13
f 16/22/27 36/42/27 40/46/27 42/48/27
f 19/25/28 38/44/28 39/45/28 43/49/28
f 38/44/29 4/4/29 41/47/29 39/45/29
f 4/4/30 16/22/30 42/48/30 41/47/30
f 47/53/12 48/54/12 46/52/12 45/51/12
f 50/56/11 49/55/11 45/51/11 46/52/11
f 31/37/31 13/19/31 47/53/31 45/51/31
f 6/7/32 33/39/32 46/52/32 48/54/32
f 22/28/33 31/37/33 45/51/33 49/55/33
f 13/19/34 6/7/34 48/54/34 47/53/34
f 54/60/11 53/59/11 51/57/11 52/58/11
f 55/61/13 56/62/13 52/58/13 51/57/13
f 32/38/35 35/41/35 52/58/35 56/62/35
f 34/40/36 32/38/36 56/62/36 55/61/36
f 8/11/37 37/43/37 51/57/37 53/59/37
f 37/43/38 34/40/38 55/61/38 51/57/38
f 70/76/39 69/75/39 72/78/39 71/77/39
f 59/65/40 66/72/40 94/100/40 87/93/40
f 65/71/41 61/67/41 83/89/41 84/90/41
f 62/68/42 66/72/42 80/86/42 77/83/42
f 23/29/43 60/66/43 73/79/43 74/80/43
f 67/73/44 57/63/44 71/77/44 72/78/44
f 64/70/45 67/73/45 72/78/45 69/75/45
f 57/63/46 33/39/46 70/76/46 71/77/46
f 73/79/39 76/82/39 75/81/39 74/80/39
f 60/66/47 68/74/47 76/82/47 73/79/47
f 63/69/6 23/29/6 74/80/6 75/81/6
f 68/74/48 63/69/48 75/81/48 76/82/48
f 77/83/39 80/86/39 79/85/39 78/84/39
f 38/44/2 62/68/2 77/83/2 78/84/2
f 59/65/49 38/44/49 78/84/49 79/85/49
f 66/72/40 59/65/40 79/85/40 80/86/40
f 81/87/39 84/90/39 83/89/39 82/88/39
f 61/67/2 37/43/2 82/88/2 83/89/2
f 37/43/50 58/64/50 81/87/50 82/88/50
f 58/64/51 65/71/51 84/90/51 81/87/51
f 85/91/39 95/101/39 92/98/39 91/97/39 96/102/39 88/94/39 87/93/39 94/100/39 90/96/39 89/95/39 93/99/39 86/92/39
f 58/64/49 57/63/49 85/91/49 86/92/49
f 61/67/41 65/71/41 93/99/41 89/95/41
f 63/69/52 68/74/52 96/102/52 91/97/52
f 62/68/6 61/67/6 89/95/6 90/96/6
f 57/63/53 67/73/53 95/101/53 85/91/53
f 65/71/51 58/64/51 86/92/51 93/99/51
f 67/73/54 64/70/54 92/98/54 95/101/54
f 60/66/50 59/65/50 87/93/50 88/94/50
f 66/72/42 62/68/42 90/96/42 94/100/42
f 64/70/2 63/69/2 91/97/2 92/98/2
f 68/74/55 60/66/55 88/94/55 96/102/55
