# Blender 3.4.1
# www.blender.org
mtllib Fireplace.mtl
o Cube
v 5.829688 8.662853 -3.322387
v 5.829688 -0.112056 -3.322387
v 4.294338 7.439477 3.037099
v 4.794924 0.222107 3.322387
v -5.829688 8.662853 -3.322387
v -5.829688 -0.112056 -3.322387
v -4.294338 7.439477 3.037099
v -4.794924 0.222107 3.322387
v -5.829688 -0.112056 3.322387
v -5.829688 8.662853 3.322387
v 5.829688 8.662853 3.322387
v 5.829688 -0.112056 3.322387
v -5.076642 20.436081 -0.310308
v -5.076642 20.436081 -0.922119
v -5.829688 20.436081 -0.922118
v 5.829688 20.436081 -0.969181
v -5.829688 -0.112056 6.034738
v 5.829688 -0.112056 6.034738
v -4.794924 0.222107 6.034738
v 4.794924 0.222107 6.034738
v 4.750826 8.662853 3.322387
v -4.703607 8.662853 3.322387
v 4.927910 9.341537 0.000000
v -5.829688 -0.112056 0.000000
v -4.703607 8.662853 4.712213
v -4.794924 0.222107 4.712213
v -4.794924 7.439477 4.712213
v 4.794924 7.439477 4.706172
v 4.794924 0.222107 4.706172
v 4.750826 8.662853 4.706172
v -4.749265 8.051165 4.712213
v 4.772874 8.051165 4.706172
v 4.750826 8.662853 5.235891
v -4.703607 8.662853 5.235891
v 4.762924 8.327209 3.322387
v 4.405954 8.051165 3.322387
v 4.782825 7.775120 3.322387
v 4.772874 8.051165 3.531498
v 4.405954 8.051165 5.235891
v 4.762924 8.327209 5.235891
v -4.318206 8.051165 3.322387
v -4.725088 8.375072 3.322387
v -4.749265 8.051165 3.568051
v -4.773443 7.727259 3.322387
v -4.725088 8.375072 5.235891
v -4.318206 8.051165 5.235891
v 5.190246 7.906857 4.706172
v 5.829688 8.662853 4.341749
v 5.190246 8.662853 4.706172
v 5.829688 -0.112056 4.341749
v 5.190246 0.094443 4.706172
v -5.199805 0.091356 4.712213
v -5.829688 -0.112056 4.353237
v -5.829688 8.662853 4.353237
v -5.199805 7.918159 4.712213
v -5.199805 8.662853 4.712213
v -4.927910 9.341537 0.000000
v 5.829688 -0.112056 0.000000
v -4.927910 19.757399 0.000000
v -5.829688 20.436081 -3.322387
v 5.829688 20.436081 -3.322387
v 4.927910 19.757399 0.000000
v -4.927910 9.341537 -1.176342
v 4.927910 9.341537 -1.176342
v -4.927910 19.757399 -1.176342
v 4.927910 19.757399 -1.176342
v -5.195853 9.139881 0.000000
v -5.829688 8.662853 -0.361228
v -5.829688 8.185825 0.000000
v -5.829688 8.662853 0.361228
v -5.195853 8.662853 0.000000
v -5.829688 20.436081 -0.361228
v -5.195853 19.959055 0.000000
v -5.195853 20.436081 0.000000
v 5.829688 8.662853 -0.295527
v 5.311136 9.053118 0.000000
v 5.311136 8.662853 0.000000
v 5.829688 8.662853 0.295527
v 5.829688 8.272589 0.000000
v 5.311136 20.045816 0.000000
v 5.829688 20.436081 -0.295527
v 5.311136 20.436081 0.000000
v -1.793579 0.222107 -2.091545
v -4.794924 0.222107 -0.381054
v -4.294338 7.439477 -0.262884
v -1.586229 7.439477 -1.806257
v 1.586229 7.439477 -1.806257
v 4.294338 7.439477 -0.262884
v 4.794924 0.222107 -0.381054
v 1.793578 0.222107 -2.091545
v 5.182958 20.436081 -0.969181
v 5.135896 20.436081 -0.310308
v 5.135895 23.003050 -0.310308
v 5.311135 23.003050 0.000000
v -5.829689 23.003050 -0.922118
v -5.076643 23.003050 -0.922119
v -5.076643 23.003050 -0.310308
v -5.195854 23.003050 0.000000
v 5.182957 23.003050 -0.969181
v 5.829687 23.003050 -0.969181
v -5.829689 23.003050 -0.361228
v 5.829687 23.003050 -0.295527
v 4.794924 7.439477 3.322387
v -4.794924 7.439477 3.322387
v -1.793578 7.439477 -2.091545
v -4.794924 7.439477 -0.381054
v 4.794924 7.439477 -0.381054
v 1.793579 7.439477 -2.091545
v 4.794924 5.590601 3.322387
v -4.794924 5.590601 3.322387
v 4.294338 5.590601 3.037099
v -4.294338 5.590601 3.037099
vn -1.0000 -0.0000 -0.0000
vn -0.0000 -1.0000 -0.0000
vn -0.0000 1.0000 -0.0000
vn 1.0000 -0.0000 -0.0000
vn -0.0000 -0.0000 -1.0000
vn -0.0000 -0.0000 1.0000
vn -0.3073 -0.9516 -0.0000
vn 0.3073 0.9516 -0.0000
vn -0.3073 0.9516 -0.0000
vn 0.3073 -0.9516 -0.0000
vn 0.9972 -0.0744 -0.0000
vn -0.9994 -0.0360 -0.0000
vn -0.4951 -0.0178 0.8687
vn 0.6117 -0.7911 -0.0000
vn 0.9994 0.0360 -0.0000
vn 0.4948 -0.0369 0.8682
vn -0.6228 -0.7824 -0.0000
vn -0.9972 0.0744 -0.0000
vn 0.4951 -0.0000 0.8688
vn -0.4951 -0.0000 0.8688
vn -0.6857 0.6074 0.4011
vn 0.6857 0.6074 0.4011
vn 0.9335 -0.0000 0.3586
vn -0.9975 -0.0000 -0.0712
vn -0.8707 -0.0000 0.4917
vn -0.4951 -0.0000 -0.8688
vn 0.4951 -0.0000 -0.8688
vt 0.625000 0.500000
vt 0.375000 0.500000
vt 0.602813 0.782921
vt 0.397187 0.772187
vt 0.625000 0.250000
vt 0.125000 0.500000
vt 0.375000 0.250000
vt 0.602813 0.967079
vt 0.397187 0.977813
vt 0.125000 0.750000
vt 0.375000 1.000000
vt 0.375000 0.000000
vt 0.625000 0.000000
vt 0.875000 0.750000
vt 0.625000 0.750000
vt 0.375000 0.750000
vt 0.858853 0.613325
vt 0.858853 0.590307
vt 0.625000 0.159693
vt 0.875000 0.590307
vt 0.625000 0.588536
vt 0.125000 0.750000
vt 0.375000 1.000000
vt 0.375000 0.750000
vt 0.397187 0.977813
vt 0.397187 0.772187
vt 0.625000 0.773133
vt 0.648133 0.750000
vt 0.625000 0.975855
vt 0.850855 0.750000
vt 0.644336 0.625000
vt 0.125000 0.625000
vt 0.375000 0.125000
vt 0.625000 0.975855
vt 0.850855 0.750000
vt 0.397187 0.977813
vt 0.602813 0.977813
vt 0.602813 0.772187
vt 0.397187 0.772187
vt 0.648133 0.750000
vt 0.625000 0.773133
vt 0.613906 0.976834
vt 0.613906 0.772660
vt 0.648133 0.750000
vt 0.625000 0.773133
vt 0.850855 0.750000
vt 0.625000 0.975855
vt 0.618913 0.772873
vt 0.614042 0.772666
vt 0.613906 0.780528
vt 0.608900 0.772447
vt 0.613906 0.772660
vt 0.613906 0.780528
vt 0.618913 0.772874
vt 0.613906 0.967591
vt 0.613906 0.976315
vt 0.619781 0.976315
vt 0.613906 0.976833
vt 0.608032 0.977352
vt 0.619781 0.976315
vt 0.613906 0.967591
vt 0.603461 0.750000
vt 0.611289 0.763711
vt 0.625000 0.750000
vt 0.625000 0.763711
vt 0.638711 0.750000
vt 0.625000 0.750000
vt 0.375000 0.750000
vt 0.388711 0.763711
vt 0.388506 0.986494
vt 0.380795 0.000000
vt 0.375000 1.000000
vt 0.375000 0.000000
vt 0.875000 0.750000
vt 0.625000 0.000000
vt 0.611494 0.986494
vt 0.603783 0.000000
vt 0.625000 0.986494
vt 0.861494 0.750000
vt 0.625000 0.000000
vt 0.855664 0.625000
vt 0.375000 0.625000
vt 0.855664 0.625000
vt 0.875000 0.500000
vt 0.625000 0.250000
vt 0.625000 0.500000
vt 0.644336 0.625000
vt 0.855664 0.625000
vt 0.644336 0.625000
vt 0.855664 0.625000
vt 0.644336 0.625000
vt 0.861409 0.625000
vt 0.625000 0.125000
vt 0.625000 0.125000
vt 0.625000 0.138591
vt 0.611409 0.125000
vt 0.875000 0.638591
vt 0.625000 0.111409
vt 0.861409 0.625000
vt 0.625000 0.125000
vt 0.625000 0.138591
vt 0.861409 0.625000
vt 0.625000 0.125000
vt 0.625000 0.125000
vt 0.861409 0.625000
vt 0.625000 0.613881
vt 0.625000 0.625000
vt 0.636119 0.625000
vt 0.636119 0.625000
vt 0.625000 0.636119
vt 0.613881 0.625000
vt 0.636119 0.625000
vt 0.625000 0.613881
vt 0.625000 0.625000
vt 0.636119 0.625000
vt 0.397187 0.913458
vt 0.397187 0.977813
vt 0.602813 0.967079
vt 0.602813 0.909012
vt 0.602813 0.840988
vt 0.602813 0.782921
vt 0.397187 0.772187
vt 0.397187 0.836542
vt 0.638867 0.588536
vt 0.639876 0.613325
vt 0.639876 0.613325
vt 0.636119 0.625000
vt 0.625000 0.159693
vt 0.875000 0.590307
vt 0.858853 0.590307
vt 0.858853 0.613325
vt 0.625000 0.125000
vt 0.861409 0.625000
vt 0.638867 0.588536
vt 0.625000 0.588536
vt 0.875000 0.611409
vt 0.625000 0.138591
vt 0.625000 0.613881
vt 0.625000 0.625000
vt 0.602813 0.772187
vt 0.602813 0.977813
vt 0.602813 0.913458
vt 0.602813 0.977813
vt 0.602813 0.772187
vt 0.602813 0.836542
vt 0.602813 0.772187
vt 0.602813 0.977813
vt 0.602813 0.782921
vt 0.602813 0.967079
s 0
usemtl Material
f 9/12/1 10/13/1 70/98/1 69/96/1 24/33/1
f 3/3/2 7/8/2 85/118/2 86/119/2 87/120/2 88/121/2
f 61/86/3 60/84/3 15/20/3 14/18/3 13/17/3 74/105/3 82/115/3 92/125/3 91/124/3 16/21/3
f 24/32/2 58/82/2 12/16/2 9/10/2
f 2/2/4 1/1/4 75/106/4 79/111/4 58/82/4
f 6/7/5 5/5/5 1/1/5 2/2/5
f 41/55/6 44/59/6 104/141/6 103/140/6 37/51/6 36/50/6
f 4/4/7 12/16/7 50/68/7 51/69/7 29/39/7
f 8/9/4 104/141/4 27/37/4 26/36/4
f 9/10/2 12/16/2 18/24/2 17/22/2
f 8/9/3 4/4/3 89/122/3 90/123/3 83/116/3 84/117/3
f 104/141/4 8/9/4 84/117/4 106/143/4
f 100/135/3 99/134/3 93/126/3 94/127/3 102/138/3
f 4/4/1 103/140/1 107/144/1 89/122/1
f 20/26/6 19/25/6 17/23/6 18/24/6
f 12/16/8 4/4/8 20/26/8 18/24/8
f 4/4/3 8/9/3 19/25/3 20/26/3
f 8/9/9 9/11/9 17/23/9 19/25/9
f 9/11/10 8/9/10 26/36/10 52/70/10 53/72/10
f 43/58/11 42/57/11 22/29/11 25/34/11 31/42/11
f 75/106/4 1/1/4 61/86/4 16/21/4 81/113/4
f 27/37/6 31/42/6 25/34/6 56/78/6 55/76/6
f 22/30/3 10/14/3 54/74/3 56/79/3 25/35/3
f 26/36/6 27/37/6 55/76/6 52/70/6
f 30/41/6 32/43/6 28/38/6 47/63/6 49/65/6
f 11/15/3 21/28/3 30/40/3 49/66/3 48/64/3
f 103/140/1 4/4/1 29/39/1 28/38/1
f 21/27/12 35/48/12 38/52/12 32/43/12 30/41/12
f 12/16/4 11/15/4 48/64/4 50/68/4
f 104/141/11 44/59/11 43/58/11 31/42/11 27/37/11
f 38/52/12 37/51/12 103/140/12 28/38/12 32/43/12
f 34/47/6 45/60/6 46/61/6 39/53/6 40/54/6 33/45/6
f 41/55/2 36/50/2 39/53/2 46/61/2
f 21/28/3 22/30/3 34/46/3 33/44/3
f 35/48/13 36/49/13 37/51/13 38/52/13
f 39/53/14 36/50/14 35/48/14 40/54/14
f 35/48/15 21/27/15 33/45/15 40/54/15
f 41/55/16 42/56/16 43/58/16 44/59/16
f 45/60/17 42/57/17 41/55/17 46/61/17
f 22/29/18 42/57/18 45/60/18 34/47/18
f 47/62/19 48/64/19 49/67/19
f 47/63/19 51/69/19 50/68/19 48/64/19
f 28/38/6 29/39/6 51/69/6 47/63/6
f 54/75/20 55/77/20 56/80/20
f 52/71/20 55/77/20 54/75/20 53/73/20
f 10/13/1 9/12/1 53/73/1 54/75/1
f 6/6/2 2/2/2 58/82/2 24/32/2
f 78/110/3 77/109/3 71/99/3 70/97/3 10/14/3 22/30/3 21/28/3 11/15/3
f 57/81/6 59/83/6 73/102/6 67/92/6
f 59/83/4 57/81/4 63/88/4 65/90/4
f 1/1/5 5/5/5 60/85/5 61/86/5
f 62/87/6 23/31/6 76/108/6 80/112/6
f 59/83/6 62/87/6 80/112/6 82/115/6 74/105/6 73/102/6
f 24/33/1 69/96/1 68/95/1 5/5/1 6/7/1
f 23/31/6 57/81/6 67/92/6 71/99/6 77/109/6 76/108/6
f 63/88/6 64/89/6 66/91/6 65/90/6
f 57/81/3 23/31/3 64/89/3 63/88/3
f 23/31/1 62/87/1 66/91/1 64/89/1
f 62/87/2 59/83/2 65/90/2 66/91/2
f 67/93/21 68/94/21 69/96/21 70/98/21 71/100/21
f 72/101/20 73/103/20 74/104/20
f 67/93/20 73/103/20 72/101/20 68/95/20
f 5/5/1 68/95/1 72/101/1 15/19/1 60/85/1
f 75/106/22 76/107/22 77/109/22 78/110/22 79/111/22
f 80/112/19 81/114/19 82/115/19
f 75/106/19 81/113/19 80/112/19 76/108/19
f 58/82/4 79/111/4 78/110/4 11/15/4 12/16/4
f 83/116/19 105/142/19 106/143/19 84/117/19
f 108/145/20 90/123/20 89/122/20 107/144/20
f 90/123/6 108/145/6 105/142/6 83/116/6
f 72/101/20 74/104/20 98/132/20 101/137/20
f 74/105/23 13/17/23 97/131/23 98/133/23
f 98/133/3 97/131/3 96/130/3 95/129/3 101/136/3
f 81/113/4 16/21/4 100/135/4 102/138/4
f 91/124/24 92/125/24 93/126/24 99/134/24
f 82/115/19 81/114/19 102/139/19 94/127/19
f 92/125/25 82/115/25 94/127/25 93/126/25
f 15/19/1 72/101/1 101/137/1 95/128/1
f 16/21/5 91/124/5 99/134/5 100/135/5
f 14/18/5 15/20/5 95/129/5 96/130/5
f 13/17/4 14/18/4 96/130/4 97/131/4
f 104/141/26 7/8/26 112/149/26 110/147/26
f 86/119/2 85/118/2 106/143/2 105/142/2
f 88/121/2 87/120/2 108/145/2 107/144/2
f 87/120/2 86/119/2 105/142/2 108/145/2
f 85/118/2 7/8/2 104/141/2 106/143/2
f 3/3/2 88/121/2 107/144/2 103/140/2
f 112/149/2 111/148/2 109/146/2 110/147/2
f 7/8/5 3/3/5 111/148/5 112/149/5
f 103/140/6 104/141/6 110/147/6 109/146/6
f 3/3/27 103/140/27 109/146/27 111/148/27
