# Blender 3.4.1
# www.blender.org
mtllib KitchenDrawers_Sink.mtl
o Cube
v 1.765355 3.629058 -3.710993
v 1.765355 0.010935 -3.710993
v 1.765355 3.629058 3.710993
v 1.765355 0.010935 3.710993
v -1.765355 3.629058 -3.710993
v -1.765355 0.010935 -3.710993
v -1.765355 3.629058 3.710993
v -1.765355 0.010935 3.710993
v 1.688421 3.690262 3.549268
v -1.688421 3.690262 3.549268
v 1.688421 3.690262 -3.549268
v -1.688421 3.690262 -3.549268
v 1.780491 3.715852 3.742810
v -1.780491 3.715852 3.742810
v 1.780491 3.715852 -3.742810
v -1.780491 3.715852 -3.742810
v 1.780491 3.906159 3.742810
v -1.780491 3.906159 3.742810
v 1.654057 3.259762 -3.477032
v -1.654057 3.259762 -3.477032
v -1.765355 0.010935 0.000000
v 1.765355 3.629058 0.000000
v -1.765355 3.629058 0.000000
v 1.765355 0.010935 0.000000
v 1.688421 3.690262 0.000000
v -1.688421 3.690262 0.000000
v 1.780491 3.715852 0.000000
v -1.780491 3.715852 0.000000
v 1.689560 3.197097 -0.191148
v -1.689560 3.197097 -0.191148
v 1.793230 3.563597 -3.710993
v 1.793230 2.230239 -3.710993
v 1.793230 2.230239 0.000000
v 1.793230 3.563597 0.000000
v 1.854028 3.583242 -3.686597
v 1.854028 2.210593 -3.686597
v 1.854028 2.210593 -0.024396
v 1.854028 3.583242 -0.024396
v 2.010889 3.583242 -3.686597
v 2.010889 2.210593 -3.686597
v 2.010889 2.210593 -0.024396
v 2.010889 3.583242 -0.024396
v -1.765355 3.629058 -1.855496
v 1.765355 0.010935 -1.855496
v -1.688421 3.690262 -1.774634
v -1.780491 3.715852 -1.871405
v -1.689560 3.197097 -1.680257
v -1.765355 0.010935 -1.855496
v 1.765355 3.629058 -1.855496
v 1.688421 3.690262 -1.774634
v 1.780491 3.715852 -1.871405
v 1.689560 3.197097 -1.680257
v 1.793230 2.230239 -1.855496
v 1.793230 3.563597 -1.855496
v 1.854028 2.210593 -1.855496
v 1.854028 3.583242 -1.855496
v 2.010889 2.210593 -1.855496
v 2.010889 3.583242 -1.855496
v 1.797263 0.091817 -1.923444
v 1.797263 0.091817 -3.643045
v 1.823096 2.148580 -1.923444
v 1.823096 2.148580 -3.643045
v 1.959440 0.089780 -1.923444
v 1.959440 0.089780 -3.643045
v 1.985273 2.146543 -1.923444
v 1.985273 2.146543 -3.643045
v 1.827445 2.160765 -0.057716
v 1.801305 0.079527 -0.057716
v 1.801305 0.079527 -1.797780
v 1.827445 2.160765 -1.797780
v 1.963541 2.159056 -0.057716
v 1.937400 0.077818 -0.057716
v 1.937400 0.077818 -1.797780
v 1.963541 2.159056 -1.797780
v 2.019231 3.715852 0.000000
v 2.019231 3.715852 3.742810
v 2.019231 3.906159 0.000000
v 2.019231 3.906159 3.742810
v 2.019231 3.906159 -3.742810
v 2.019231 3.715852 -3.742810
v 2.019231 3.715852 -1.871405
v 2.019231 3.906159 -1.871405
v 1.859051 3.629058 3.710993
v 1.859051 0.010935 3.710993
v 1.859051 3.629058 0.000000
v 1.859051 0.010935 0.000000
v 1.654057 3.259762 -2.137183
v 1.780491 3.906159 0.000000
v -1.780491 3.906159 0.000000
v -1.654057 3.259762 -2.137183
v -1.780491 3.906159 -1.871405
v -1.780491 3.906159 -3.742810
v 1.780491 3.906159 -3.742810
v 1.780491 3.906159 -1.871405
v -1.711484 3.906159 -2.016465
v -1.711484 3.906159 -3.597750
v 1.711484 3.906159 -3.597750
v 1.711484 3.906159 -2.016465
v 1.718915 3.906159 -1.741965
v 1.718915 3.906159 -0.129440
v -1.718915 3.906159 -0.129440
v -1.718915 3.906159 -1.741965
v 1.983114 3.629058 3.710993
v 1.983114 0.010935 3.710993
v 1.983114 3.629058 0.000000
v 1.983114 0.010935 0.000000
v 0.000000 0.010935 -3.710993
v 0.000000 3.629058 3.710993
v 0.000000 0.010935 3.710993
v 0.000000 3.629058 -3.710993
v 0.000000 3.690262 3.549268
v 0.000000 3.690262 -3.549268
v 0.000000 3.715852 3.742810
v 0.000000 3.715852 -3.742810
v 0.000000 3.906159 3.742810
v 0.000000 3.906159 -3.742810
v 0.000000 3.906159 0.000000
v 0.000000 0.010935 0.000000
v 0.000000 0.010935 -1.855496
v 0.000000 3.906159 -1.871405
v 0.000000 3.906159 -0.129440
v 0.000000 3.906159 -1.741965
v 0.000000 3.906159 -3.597750
v 0.000000 3.906159 -2.016465
v 0.000000 3.259762 -3.477032
v 0.000000 3.259762 -2.137183
v 0.000000 3.197097 -0.191148
v 0.000000 3.197097 -1.680257
v -0.882678 0.010935 -3.710993
v -0.882678 3.629058 3.710993
v -0.844210 3.690262 3.549268
v -0.890245 3.715852 3.742810
v -0.890245 3.906159 3.742810
v -0.882678 0.010935 0.000000
v -0.882678 0.010935 -1.855496
v -0.882678 0.010935 3.710993
v -0.882678 3.629058 -3.710993
v -0.844210 3.690262 -3.549268
v -0.890245 3.715852 -3.742810
v -0.890245 3.906159 -3.742810
v -0.890245 3.906159 0.000000
v -0.890245 3.906159 -1.871405
v -0.859457 3.906159 -0.129440
v -0.859457 3.906159 -1.741965
v -0.855742 3.906159 -3.597750
v -0.855742 3.906159 -2.016465
v -0.827029 3.259762 -3.477032
v -0.827029 3.259762 -2.137183
v -0.844780 3.197097 -0.191148
v -0.844780 3.197097 -1.680257
v -1.324016 0.010935 -3.710993
v -1.324016 3.629058 3.710993
v -1.266316 3.690262 3.549268
v -1.335368 3.715852 3.742810
v -1.335368 3.906159 3.742810
v -1.324016 0.010935 0.000000
v -1.324016 0.010935 -1.855496
v -1.324016 0.010935 3.710993
v -1.324016 3.629058 -3.710993
v -1.266316 3.690262 -3.549268
v -1.335368 3.715852 -3.742810
v -1.335368 3.906159 -3.742810
v -1.335368 3.906159 0.000000
v -1.335368 3.906159 -1.871405
v -1.289186 3.906159 -0.129440
v -1.289186 3.906159 -1.741965
v -1.283613 3.906159 -3.597750
v -1.283613 3.906159 -2.016465
v -1.240543 3.259762 -3.477032
v -1.240543 3.259762 -2.137183
v -1.267170 3.197097 -0.191148
v -1.267170 3.197097 -1.680257
v -1.718915 3.971257 -1.741965
v -1.780491 3.971257 -1.871405
v -1.711484 3.971257 -2.016465
v -1.335368 3.971257 -1.871405
v -1.289186 3.971257 -1.741965
v -1.283613 3.971257 -2.016465
v -1.718915 4.197824 -1.741965
v -1.780491 4.197824 -1.871405
v -1.711484 4.197824 -2.016465
v -1.335368 4.197824 -1.871405
v -1.289186 4.197824 -1.741965
v -1.283613 4.197824 -2.016465
v -1.718915 5.294489 -1.741965
v -1.780491 5.294489 -1.871405
v -1.711484 5.294489 -2.016465
v -1.335368 5.294489 -1.871405
v -1.289186 5.294489 -1.741965
v -1.283613 5.294489 -2.016465
v -1.718915 5.496616 -1.741965
v -1.780491 5.496616 -1.871405
v -1.711484 5.496616 -2.016465
v -1.335368 5.496616 -1.871405
v -1.289186 5.496616 -1.741965
v -1.283613 5.496616 -2.016465
v -0.693353 5.294489 -2.016465
v -0.693353 5.496616 -2.016465
v -0.698926 5.294489 -1.741965
v -0.745108 5.294489 -1.871405
v -0.698926 5.496616 -1.741965
v -0.745108 5.496616 -1.871405
v -0.560365 5.294489 -2.016465
v -0.560365 5.496616 -2.016465
v -0.565938 5.294489 -1.741965
v -0.612120 5.294489 -1.871405
v -0.565938 5.496616 -1.741965
v -0.612120 5.496616 -1.871405
v -0.698926 5.214367 -1.741965
v -0.745108 5.214367 -1.871405
v -0.693353 5.214367 -2.016465
v -0.565938 5.214367 -1.741965
v -0.612120 5.214367 -1.871405
v -0.560365 5.214367 -2.016465
vn -0.6226 0.7826 -0.0000
vn -0.0000 -0.0000 1.0000
vn -1.0000 -0.0000 -0.0000
vn -0.0000 -1.0000 -0.0000
vn -0.0000 -0.0000 -1.0000
vn -0.2678 -0.9635 -0.0000
vn 0.6226 0.7826 -0.0000
vn -0.0000 0.9353 -0.3539
vn -0.0000 0.9353 0.3539
vn -0.0000 -0.9914 0.1311
vn -0.0000 -0.9914 -0.1311
vn 0.2678 -0.9635 -0.0000
vn -0.0000 1.0000 -0.0000
vn 0.9302 -0.3670 -0.0000
vn -0.3075 0.9516 -0.0000
vn 0.9201 0.3918 -0.0000
vn 0.3724 -0.0000 -0.9281
vn 0.3724 -0.0000 0.9281
vn -0.3075 -0.9516 -0.0000
vn 1.0000 -0.0000 -0.0000
vn 0.8544 -0.0107 0.5194
vn 0.0126 0.9999 -0.0000
vn 0.9103 -0.0114 -0.4138
vn 0.9103 -0.0114 0.4138
vn 0.9392 0.3435 -0.0000
vn 0.9999 -0.0126 -0.0000
vn -0.0126 -0.9999 -0.0000
vn 0.8857 -0.4642 -0.0000
vn 0.8971 0.4418 -0.0000
vn 0.8544 -0.0107 -0.5194
vn 0.9418 -0.0000 0.3360
vn 0.9961 0.0885 -0.0000
vn -0.0000 0.1836 0.9830
vn -0.9961 0.0885 -0.0000
vn -0.0000 0.1836 -0.9830
vn -0.9991 0.0414 -0.0000
vn -0.0000 0.0867 -0.9962
vn 0.9991 0.0414 -0.0000
vn -0.0000 0.0867 0.9962
vn -0.9030 -0.0000 0.4296
vn -0.9030 -0.0000 -0.4296
vn 0.9418 -0.0000 -0.3360
vn -0.9418 -0.0000 -0.3360
vn -0.9418 -0.0000 0.3360
vt 0.625000 0.500000
vt 0.375000 0.500000
vt 0.625000 0.750000
vt 0.375000 0.750000
vt 0.625000 0.250000
vt 0.125000 0.500000
vt 0.375000 0.250000
vt 0.625000 0.000000
vt 0.625000 1.000000
vt 0.375000 1.000000
vt 0.375000 0.000000
vt 0.125000 0.750000
vt 0.625000 0.750000
vt 0.625000 0.000000
vt 0.625000 1.000000
vt 0.625000 0.500000
vt 0.625000 0.250000
vt 0.625000 0.750000
vt 0.625000 0.000000
vt 0.625000 1.000000
vt 0.625000 0.500000
vt 0.625000 0.250000
vt 0.625000 0.750000
vt 0.625000 0.000000
vt 0.875000 0.750000
vt 0.625000 1.000000
vt 0.633876 0.508876
vt 0.866124 0.508876
vt 0.375000 0.125000
vt 0.125000 0.625000
vt 0.625000 0.625000
vt 0.625000 0.125000
vt 0.375000 0.625000
vt 0.625000 0.625000
vt 0.625000 0.125000
vt 0.625000 0.625000
vt 0.625000 0.125000
vt 0.631384 0.618616
vt 0.868616 0.618616
vt 0.625000 0.500000
vt 0.375000 0.500000
vt 0.375000 0.625000
vt 0.625000 0.625000
vt 0.625000 0.500000
vt 0.375000 0.500000
vt 0.375000 0.625000
vt 0.625000 0.625000
vt 0.625000 0.500000
vt 0.375000 0.500000
vt 0.375000 0.625000
vt 0.625000 0.625000
vt 0.625000 0.187500
vt 0.375000 0.562500
vt 0.625000 0.187500
vt 0.625000 0.187500
vt 0.868616 0.568884
vt 0.375000 0.187500
vt 0.125000 0.562500
vt 0.625000 0.562500
vt 0.625000 0.562500
vt 0.625000 0.562500
vt 0.631384 0.568884
vt 0.375000 0.562500
vt 0.625000 0.562500
vt 0.375000 0.562500
vt 0.625000 0.562500
vt 0.375000 0.562500
vt 0.625000 0.562500
vt 0.375000 0.562500
vt 0.375000 0.500000
vt 0.375000 0.562500
vt 0.375000 0.500000
vt 0.375000 0.562500
vt 0.375000 0.500000
vt 0.375000 0.562500
vt 0.375000 0.500000
vt 0.375000 0.625000
vt 0.375000 0.625000
vt 0.375000 0.562500
vt 0.375000 0.562500
vt 0.375000 0.625000
vt 0.375000 0.625000
vt 0.375000 0.562500
vt 0.375000 0.562500
vt 0.625000 0.625000
vt 0.625000 0.750000
vt 0.625000 0.625000
vt 0.625000 0.750000
vt 0.625000 0.500000
vt 0.625000 0.500000
vt 0.625000 0.562500
vt 0.625000 0.562500
vt 0.625000 0.750000
vt 0.375000 0.750000
vt 0.625000 0.625000
vt 0.375000 0.625000
vt 0.633876 0.553624
vt 0.625000 0.625000
vt 0.625000 0.125000
vt 0.875000 0.625000
vt 0.866124 0.553624
vt 0.625000 0.187500
vt 0.875000 0.562500
vt 0.625000 0.250000
vt 0.875000 0.500000
vt 0.625000 0.500000
vt 0.625000 0.562500
vt 0.870155 0.557655
vt 0.870155 0.504845
vt 0.629845 0.504845
vt 0.629845 0.557655
vt 0.629323 0.566823
vt 0.629323 0.620677
vt 0.870677 0.620677
vt 0.870677 0.566823
vt 0.625000 0.750000
vt 0.375000 0.750000
vt 0.625000 0.625000
vt 0.375000 0.625000
vt 0.250000 0.500000
vt 0.375000 0.375000
vt 0.625000 0.875000
vt 0.250000 0.750000
vt 0.375000 0.875000
vt 0.625000 0.375000
vt 0.625000 0.875000
vt 0.625000 0.375000
vt 0.625000 0.875000
vt 0.625000 0.375000
vt 0.625000 0.875000
vt 0.750000 0.750000
vt 0.750000 0.500000
vt 0.625000 0.375000
vt 0.750000 0.625000
vt 0.250000 0.625000
vt 0.250000 0.562500
vt 0.750000 0.562500
vt 0.750000 0.620677
vt 0.750000 0.566823
vt 0.750000 0.504845
vt 0.750000 0.557655
vt 0.750000 0.508876
vt 0.750000 0.553624
vt 0.750000 0.618616
vt 0.750000 0.568884
vt 0.375000 0.312500
vt 0.187500 0.500000
vt 0.625000 0.937500
vt 0.625000 0.937500
vt 0.625000 0.937500
vt 0.625000 0.937500
vt 0.812500 0.750000
vt 0.187500 0.625000
vt 0.187500 0.562500
vt 0.187500 0.750000
vt 0.375000 0.937500
vt 0.625000 0.312500
vt 0.625000 0.312500
vt 0.625000 0.312500
vt 0.812500 0.500000
vt 0.625000 0.312500
vt 0.812500 0.625000
vt 0.812500 0.562500
vt 0.810338 0.620677
vt 0.810338 0.566823
vt 0.810078 0.504845
vt 0.810078 0.557655
vt 0.808062 0.508876
vt 0.808062 0.553624
vt 0.809308 0.618616
vt 0.809308 0.568884
vt 0.156250 0.500000
vt 0.375000 0.281250
vt 0.625000 0.968750
vt 0.625000 0.968750
vt 0.625000 0.968750
vt 0.625000 0.968750
vt 0.843750 0.750000
vt 0.156250 0.625000
vt 0.156250 0.562500
vt 0.156250 0.750000
vt 0.375000 0.968750
vt 0.625000 0.281250
vt 0.625000 0.281250
vt 0.625000 0.281250
vt 0.843750 0.500000
vt 0.625000 0.281250
vt 0.843750 0.625000
vt 0.843750 0.562500
vt 0.840508 0.620677
vt 0.840508 0.566823
vt 0.840117 0.504845
vt 0.840116 0.557655
vt 0.837093 0.508876
vt 0.837093 0.553624
vt 0.838962 0.618616
vt 0.838962 0.568884
vt 0.870677 0.566823
vt 0.875000 0.562500
vt 0.870155 0.557655
vt 0.843750 0.562500
vt 0.840508 0.566823
vt 0.840116 0.557655
vt 0.870677 0.566823
vt 0.875000 0.562500
vt 0.870155 0.557655
vt 0.843750 0.562500
vt 0.840508 0.566823
vt 0.840116 0.557655
vt 0.870677 0.566823
vt 0.875000 0.562500
vt 0.870155 0.557655
vt 0.843750 0.562500
vt 0.840508 0.566823
vt 0.840116 0.557655
vt 0.870677 0.566823
vt 0.875000 0.562500
vt 0.870155 0.557655
vt 0.843750 0.562500
vt 0.840508 0.566823
vt 0.840116 0.557655
vt 0.840116 0.557655
vt 0.840116 0.557655
vt 0.840508 0.566823
vt 0.843750 0.562500
vt 0.840508 0.566823
vt 0.843750 0.562500
vt 0.840116 0.557655
vt 0.840116 0.557655
vt 0.840508 0.566823
vt 0.843750 0.562500
vt 0.840508 0.566823
vt 0.843750 0.562500
vt 0.840508 0.566823
vt 0.843750 0.562500
vt 0.840116 0.557655
vt 0.840508 0.566823
vt 0.843750 0.562500
vt 0.840116 0.557655
s 0
usemtl Material
f 23/32/1 7/8/1 10/14/1 26/35/1
f 158/182/2 152/174/2 7/9/2 8/10/2
f 48/57/3 43/52/3 5/5/3 6/7/3
f 118/135/4 24/33/4 4/4/4 109/123/4
f 24/33/5 22/31/5 85/95/5 86/96/5
f 107/121/5 110/125/5 1/1/5 2/2/5
f 26/35/6 10/14/6 14/19/6 28/37/6
f 49/59/7 1/1/7 11/16/7 50/60/7
f 159/183/8 5/5/8 12/17/8 160/184/8
f 108/122/9 3/3/9 9/13/9 111/126/9
f 28/37/3 14/19/3 18/24/3 89/99/3
f 111/126/10 9/13/10 13/18/10 113/128/10
f 160/184/11 12/17/11 16/22/11 161/185/11
f 50/60/12 11/16/12 15/21/12 51/61/12
f 163/188/13 89/100/13 18/25/13 155/178/13
f 113/128/2 13/18/2 17/23/2 115/130/2
f 161/185/5 16/22/5 92/104/5 162/187/5
f 13/18/4 27/36/4 75/85/4 76/86/4
f 17/23/2 13/18/2 76/86/2 78/88/2
f 172/197/13 47/56/13 30/39/13 171/196/13
f 9/13/12 25/34/12 27/36/12 13/18/12
f 46/55/3 28/37/3 89/99/3 91/102/3
f 3/3/7 22/31/7 25/34/7 9/13/7
f 45/54/6 26/35/6 28/37/6 46/55/6
f 44/53/14 2/2/14 60/70/14 59/69/14
f 119/136/4 44/53/4 24/33/4 118/135/4
f 8/11/3 7/8/3 23/32/3 21/29/3
f 43/52/1 23/32/1 26/35/1 45/54/1
f 54/64/15 34/43/15 38/47/15 56/66/15
f 22/31/2 24/33/2 33/42/2 34/43/2
f 49/59/16 22/31/16 34/43/16 54/64/16
f 2/2/5 1/1/5 31/40/5 32/41/5
f 56/66/13 38/47/13 42/51/13 58/68/13
f 32/41/17 31/40/17 35/44/17 36/45/17
f 34/43/18 33/42/18 37/46/18 38/47/18
f 53/63/19 32/41/19 36/45/19 55/65/19
f 57/67/20 58/68/20 42/51/20 41/50/20
f 36/45/5 35/44/5 39/48/5 40/49/5
f 38/47/2 37/46/2 41/50/2 42/51/2
f 55/65/4 36/45/4 40/49/4 57/67/4
f 37/46/4 55/65/4 57/67/4 41/50/4
f 40/49/20 39/48/20 58/68/20 57/67/20
f 33/42/19 53/63/19 55/65/19 37/46/19
f 35/44/13 56/66/13 58/68/13 39/48/13
f 1/1/16 49/59/16 54/64/16 31/40/16
f 31/40/15 54/64/15 56/66/15 35/44/15
f 5/5/1 43/52/1 45/54/1 12/17/1
f 107/120/4 2/2/4 44/53/4 119/136/4
f 33/42/21 24/33/21 68/78/21 67/77/21
f 12/17/6 45/54/6 46/55/6 16/22/6
f 16/22/3 46/55/3 91/102/3 92/104/3
f 169/194/13 20/28/13 90/101/13 170/195/13
f 93/106/13 94/107/13 82/92/13 79/89/13
f 25/34/12 50/60/12 51/61/12 27/36/12
f 22/31/7 49/59/7 50/60/7 25/34/7
f 21/29/3 23/32/3 43/52/3 48/57/3
f 62/72/22 61/71/22 65/75/22 66/76/22
f 2/2/23 32/41/23 62/72/23 60/70/23
f 53/63/24 44/53/24 59/69/24 61/71/24
f 32/41/25 53/63/25 61/71/25 62/72/25
f 63/73/26 64/74/26 66/76/26 65/75/26
f 60/70/5 62/72/5 66/76/5 64/74/5
f 59/69/27 60/70/27 64/74/27 63/73/27
f 61/71/2 59/69/2 63/73/2 65/75/2
f 69/79/5 70/80/5 74/84/5 73/83/5
f 24/33/28 44/53/28 69/79/28 68/78/28
f 53/63/29 33/42/29 67/77/29 70/80/29
f 44/53/30 53/63/30 70/80/30 69/79/30
f 72/82/26 73/83/26 74/84/26 71/81/26
f 68/78/27 69/79/27 73/83/27 72/82/27
f 70/80/22 67/77/22 71/81/22 74/84/22
f 67/77/2 68/78/2 72/82/2 71/81/2
f 81/91/20 80/90/20 79/89/20 82/92/20
f 76/86/20 75/85/20 77/87/20 78/88/20
f 75/85/20 81/91/20 82/92/20 77/87/20
f 15/21/5 93/106/5 79/89/5 80/90/5
f 51/61/4 15/21/4 80/90/4 81/91/4
f 94/107/13 88/98/13 77/87/13 82/92/13
f 27/36/4 51/61/4 81/91/4 75/85/4
f 88/98/13 17/23/13 78/88/13 77/87/13
f 84/94/4 86/96/4 106/119/4 104/117/4
f 4/4/4 24/33/4 86/96/4 84/94/4
f 3/3/2 4/4/2 84/94/2 83/93/2
f 22/31/13 3/3/13 83/93/13 85/95/13
f 99/112/13 100/113/13 88/98/13 94/107/13
f 165/190/13 101/114/13 89/100/13 163/188/13
f 101/114/13 102/115/13 91/103/13 89/100/13
f 122/139/13 99/112/13 94/107/13 120/137/13
f 95/108/13 96/109/13 92/105/13 91/103/13
f 123/140/13 97/110/13 93/106/13 116/132/13
f 97/110/13 98/111/13 94/107/13 93/106/13
f 164/189/31 168/193/31 178/203/31 176/201/31
f 90/101/32 20/28/32 96/109/32 95/108/32
f 125/142/33 19/27/33 97/110/33 123/140/33
f 19/27/34 87/97/34 98/111/34 97/110/34
f 170/195/35 90/101/35 95/108/35 168/193/35
f 52/62/36 29/38/36 100/113/36 99/112/36
f 171/196/37 30/39/37 101/114/37 165/190/37
f 30/39/38 47/56/38 102/115/38 101/114/38
f 128/145/39 52/62/39 99/112/39 122/139/39
f 106/119/20 105/118/20 103/116/20 104/117/20
f 83/93/2 84/94/2 104/117/2 103/116/2
f 86/96/5 85/95/5 105/118/5 106/119/5
f 85/95/13 83/93/13 103/116/13 105/118/13
f 150/171/39 128/145/39 122/139/39 144/165/39
f 29/38/37 127/144/37 121/138/37 100/113/37
f 87/97/35 126/143/35 124/141/35 98/111/35
f 147/168/33 125/142/33 123/140/33 145/166/33
f 98/111/13 124/141/13 120/137/13 94/107/13
f 145/166/13 123/140/13 116/132/13 140/160/13
f 144/165/13 122/139/13 120/137/13 142/163/13
f 100/113/13 121/138/13 117/134/13 88/98/13
f 19/27/13 125/142/13 126/143/13 87/97/13
f 129/147/4 107/120/4 119/136/4 135/154/4
f 135/154/4 119/136/4 118/135/4 134/153/4
f 52/62/13 128/145/13 127/144/13 29/38/13
f 15/21/5 114/129/5 116/133/5 93/106/5
f 132/150/2 113/128/2 115/130/2 133/151/2
f 88/98/13 117/134/13 115/131/13 17/23/13
f 11/16/11 112/127/11 114/129/11 15/21/11
f 131/149/10 111/126/10 113/128/10 132/150/10
f 130/148/9 108/122/9 111/126/9 131/149/9
f 1/1/8 110/125/8 112/127/8 11/16/8
f 129/146/5 137/157/5 110/125/5 107/121/5
f 134/153/4 118/135/4 109/123/4 136/155/4
f 4/4/2 3/3/2 108/122/2 109/124/2
f 156/179/4 134/153/4 136/155/4 158/181/4
f 151/173/5 159/183/5 137/157/5 129/146/5
f 152/174/9 130/148/9 131/149/9 153/175/9
f 153/175/10 131/149/10 132/150/10 154/176/10
f 154/176/2 132/150/2 133/151/2 155/177/2
f 157/180/4 135/154/4 134/153/4 156/179/4
f 151/172/4 129/147/4 135/154/4 157/180/4
f 166/191/13 144/165/13 142/163/13 164/189/13
f 167/192/13 145/166/13 140/160/13 162/186/13
f 169/194/33 147/168/33 145/166/33 167/192/33
f 172/197/39 150/171/39 144/165/39 166/191/39
f 127/144/37 149/170/37 143/164/37 121/138/37
f 126/143/35 148/169/35 146/167/35 124/141/35
f 124/141/13 146/167/13 142/163/13 120/137/13
f 121/138/13 143/164/13 141/162/13 117/134/13
f 125/142/13 147/168/13 148/169/13 126/143/13
f 128/145/13 150/171/13 149/170/13 127/144/13
f 114/129/5 139/159/5 140/161/5 116/133/5
f 117/134/13 141/162/13 133/152/13 115/131/13
f 112/127/11 138/158/11 139/159/11 114/129/11
f 110/125/8 137/157/8 138/158/8 112/127/8
f 109/124/2 108/122/2 130/148/2 136/156/2
f 47/56/39 172/197/39 166/191/39 102/115/39
f 20/28/33 169/194/33 167/192/33 96/109/33
f 96/109/13 167/192/13 162/186/13 92/105/13
f 102/115/2 166/191/2 177/202/2 173/198/2
f 6/6/4 151/172/4 157/180/4 48/58/4
f 48/58/4 157/180/4 156/179/4 21/30/4
f 14/20/2 154/176/2 155/177/2 18/26/2
f 10/15/10 153/175/10 154/176/10 14/20/10
f 7/9/9 152/174/9 153/175/9 10/15/9
f 6/7/5 5/5/5 159/183/5 151/173/5
f 21/30/4 156/179/4 158/181/4 8/12/4
f 149/170/37 171/196/37 165/190/37 143/164/37
f 148/169/35 170/195/35 168/193/35 146/167/35
f 146/167/13 168/193/13 164/189/13 142/163/13
f 143/164/13 165/190/13 163/188/13 141/162/13
f 147/168/13 169/194/13 170/195/13 148/169/13
f 150/171/13 172/197/13 171/196/13 149/170/13
f 139/159/5 161/185/5 162/187/5 140/161/5
f 141/162/13 163/188/13 155/178/13 133/152/13
f 138/158/11 160/184/11 161/185/11 139/159/11
f 137/157/8 159/183/8 160/184/8 138/158/8
f 136/156/2 130/148/2 152/174/2 158/182/2
f 174/199/40 173/198/40 179/204/40 180/205/40
f 178/203/5 175/200/5 181/206/5 184/209/5
f 91/103/40 102/115/40 173/198/40 174/199/40
f 95/108/41 91/103/41 174/199/41 175/200/41
f 166/191/42 164/189/42 176/201/42 177/202/42
f 168/193/5 95/108/5 175/200/5 178/203/5
f 179/204/2 183/208/2 189/214/2 185/210/2
f 183/208/42 182/207/42 188/213/42 189/214/42
f 177/202/42 176/201/42 182/207/42 183/208/42
f 173/198/2 177/202/2 183/208/2 179/204/2
f 175/200/41 174/199/41 180/205/41 181/206/41
f 176/201/31 178/203/31 184/209/31 182/207/31
f 190/215/5 187/212/5 193/218/5 196/221/5
f 194/219/13 195/220/13 201/226/13 202/227/13
f 181/206/41 180/205/41 186/211/41 187/212/41
f 182/207/31 184/209/31 190/215/31 188/213/31
f 184/209/5 181/206/5 187/212/5 190/215/5
f 180/205/40 179/204/40 185/210/40 186/211/40
f 196/221/13 193/218/13 192/217/13 194/219/13
f 191/216/13 195/220/13 194/219/13 192/217/13
f 186/211/40 185/210/40 191/216/40 192/217/40
f 188/213/4 190/215/4 197/222/4 200/225/4
f 185/210/2 189/214/2 195/220/2 191/216/2
f 187/212/41 186/211/41 192/217/41 193/218/41
f 206/231/42 205/230/42 212/237/42 213/238/42
f 198/223/13 202/227/13 208/233/13 204/229/13
f 190/215/5 196/221/5 198/223/5 197/222/5
f 196/221/13 194/219/13 202/227/13 198/223/13
f 189/214/4 188/213/4 200/225/4 199/224/4
f 195/220/2 189/214/2 199/224/2 201/226/2
f 206/231/31 203/228/31 204/229/31 208/233/31
f 205/230/42 206/231/42 208/233/42 207/232/42
f 197/222/5 198/223/5 204/229/5 203/228/5
f 202/227/13 201/226/13 207/232/13 208/233/13
f 200/225/43 197/222/43 211/236/43 210/235/43
f 201/226/2 199/224/2 205/230/2 207/232/2
f 210/235/4 211/236/4 214/239/4 213/238/4
f 209/234/4 210/235/4 213/238/4 212/237/4
f 197/222/5 203/228/5 214/239/5 211/236/5
f 203/228/31 206/231/31 213/238/31 214/239/31
f 205/230/2 199/224/2 209/234/2 212/237/2
f 199/224/44 200/225/44 210/235/44 209/234/44
