# Blender 3.4.1
# www.blender.org
mtllib KitchenDrawers.mtl
o Cube
v 1.765355 3.629058 -3.710993
v 1.765355 0.010935 -3.710993
v 1.765355 3.629058 3.710993
v 1.765355 0.010935 3.710993
v -1.765355 3.629058 -3.710993
v -1.765355 0.010935 -3.710993
v -1.765355 3.629058 3.710993
v -1.765355 0.010935 3.710993
v 1.688421 3.690262 3.549268
v -1.688421 3.690262 3.549268
v 1.688421 3.690262 -3.549268
v -1.688421 3.690262 -3.549268
v 1.780491 3.715852 3.742810
v -1.780491 3.715852 3.742810
v 1.780491 3.715852 -3.742810
v -1.780491 3.715852 -3.742810
v 1.780491 3.906159 3.742810
v -1.780491 3.906159 3.742810
v 1.780491 3.906159 -3.742810
v -1.780491 3.906159 -3.742810
v -1.765355 0.010935 0.000000
v 1.765355 3.629058 0.000000
v -1.765355 3.629058 0.000000
v 1.765355 0.010935 0.000000
v 1.688421 3.690262 0.000000
v -1.688421 3.690262 0.000000
v 1.780491 3.715852 0.000000
v -1.780491 3.715852 0.000000
v 1.780491 3.906159 0.000000
v -1.780491 3.906159 0.000000
v 1.793230 3.563597 -3.710993
v 1.793230 2.230239 -3.710993
v 1.793230 2.230239 0.000000
v 1.793230 3.563597 0.000000
v 1.854028 3.583242 -3.686597
v 1.854028 2.210593 -3.686597
v 1.854028 2.210593 -0.024396
v 1.854028 3.583242 -0.024396
v 2.010889 3.583242 -3.686597
v 2.010889 2.210593 -3.686597
v 2.010889 2.210593 -0.024396
v 2.010889 3.583242 -0.024396
v -1.765355 3.629058 -1.855496
v 1.765355 0.010935 -1.855496
v -1.688421 3.690262 -1.774634
v -1.780491 3.715852 -1.871405
v -1.780491 3.906159 -1.871405
v -1.765355 0.010935 -1.855496
v 1.765355 3.629058 -1.855496
v 1.688421 3.690262 -1.774634
v 1.780491 3.715852 -1.871405
v 1.780491 3.906159 -1.871405
v 1.793230 2.230239 -1.855496
v 1.793230 3.563597 -1.855496
v 1.854028 2.210593 -1.855496
v 1.854028 3.583242 -1.855496
v 2.010889 2.210593 -1.855496
v 2.010889 3.583242 -1.855496
v 1.797263 0.091817 -1.923444
v 1.797263 0.091817 -3.643045
v 1.823096 2.148580 -1.923444
v 1.823096 2.148580 -3.643045
v 1.959440 0.089780 -1.923444
v 1.959440 0.089780 -3.643045
v 1.985273 2.146543 -1.923444
v 1.985273 2.146543 -3.643045
v 1.827445 2.160765 -0.057716
v 1.801305 0.079527 -0.057716
v 1.801305 0.079527 -1.797780
v 1.827445 2.160765 -1.797780
v 1.963541 2.159056 -0.057716
v 1.937400 0.077818 -0.057716
v 1.937400 0.077818 -1.797780
v 1.963541 2.159056 -1.797780
v 2.019231 3.715852 0.000000
v 2.019231 3.715852 3.742810
v 2.019231 3.906159 0.000000
v 2.019231 3.906159 3.742810
v 2.019231 3.906159 -3.742810
v 2.019231 3.715852 -3.742810
v 2.019231 3.715852 -1.871405
v 2.019231 3.906159 -1.871405
v 1.859051 3.599689 3.650749
v 1.859051 0.010935 3.710993
v 1.859051 3.599689 0.060244
v 1.859051 0.010935 0.000000
v 1.765355 1.819996 -3.710993
v -1.765355 1.819996 3.710993
v 1.765355 1.819996 3.710993
v -1.765355 1.819996 -3.710993
v 1.765355 1.819996 0.000000
v -1.765355 1.819996 0.000000
v 1.793230 2.896918 -3.710993
v 1.793230 2.896918 0.000000
v 1.854028 2.896918 -3.686597
v 1.854028 2.896918 -0.024396
v 2.010889 2.896918 -3.686597
v 2.010889 2.896918 -0.024396
v 2.010889 2.896918 -1.855496
v -1.765355 1.819996 -1.855496
v 1.859051 1.819996 3.710993
v 1.859051 1.819996 0.000000
v -1.765355 2.724527 3.710993
v 1.765355 2.724527 -3.710993
v 1.765355 2.724527 3.710993
v -1.765355 2.724527 -3.710993
v 1.765355 2.724527 0.000000
v -1.765355 2.724527 0.000000
v 1.793230 3.230257 -3.710993
v 1.793230 3.230257 0.000000
v 1.854028 3.240080 -3.686597
v 1.854028 3.240080 -0.024396
v 2.010889 3.240080 -3.686597
v 2.010889 3.240080 -0.024396
v 2.010889 3.240080 -1.855496
v -1.765355 2.724527 -1.855496
v 1.859051 2.753895 3.650749
v 1.859051 2.753895 0.060244
v 1.765355 0.915465 -3.710993
v 1.765355 0.915465 3.710993
v -1.765355 0.915465 -3.710993
v 1.765355 0.915465 0.000000
v -1.765355 0.915465 0.000000
v 1.793230 2.563578 -3.710993
v 1.793230 2.563578 0.000000
v 1.854028 2.553756 -3.686597
v 1.854028 2.553756 -0.024396
v 2.010889 2.553756 -3.686597
v 2.010889 2.553756 -0.024396
v 2.010889 2.553756 -1.855496
v -1.765355 0.915465 -1.855496
v 1.859051 0.915465 3.710993
v 1.859051 0.915465 0.000000
v -1.765355 0.915465 3.710993
v 1.859051 3.629058 0.000000
v 1.859051 3.629058 3.710993
v 1.859051 2.724527 3.710993
v 1.859051 2.724527 0.000000
v 1.976865 3.615932 0.069823
v 1.976865 3.615932 3.641170
v 1.976865 2.737652 3.641170
v 1.976865 2.737652 0.069823
v 1.987620 2.724527 3.636540
v 1.987620 1.819996 3.636540
v 1.987620 2.724527 0.074453
v 1.987620 1.819996 0.074453
v 1.964611 1.819996 0.078264
v 1.964611 1.819996 3.632729
v 1.964611 0.915465 3.632729
v 1.964611 0.915465 0.078264
v 1.959782 0.915465 3.632497
v 1.959782 0.010935 3.632497
v 1.959782 0.010935 0.078496
v 1.959782 0.915465 0.078496
vn -0.6226 0.7826 -0.0000
vn -0.0000 -0.0000 1.0000
vn -1.0000 -0.0000 -0.0000
vn -0.0000 -1.0000 -0.0000
vn -0.0000 -0.0000 -1.0000
vn -0.2678 -0.9635 -0.0000
vn 0.6226 0.7826 -0.0000
vn -0.0000 0.9353 -0.3539
vn -0.0000 0.9353 0.3539
vn -0.0000 -0.9914 0.1311
vn -0.0000 -0.9914 -0.1311
vn 0.2678 -0.9635 -0.0000
vn -0.0000 1.0000 -0.0000
vn 0.9302 -0.3670 -0.0000
vn -0.3075 0.9516 -0.0000
vn 0.9201 0.3918 -0.0000
vn 0.3724 -0.0000 -0.9281
vn 0.3724 -0.0000 0.9281
vn -0.3075 -0.9516 -0.0000
vn 1.0000 -0.0000 -0.0000
vn 0.8544 -0.0107 0.5194
vn 0.0126 0.9999 -0.0000
vn 0.9103 -0.0114 -0.4138
vn 0.9103 -0.0114 0.4138
vn 0.9392 0.3435 -0.0000
vn 0.9999 -0.0126 -0.0000
vn -0.0126 -0.9999 -0.0000
vn 0.8857 -0.4642 -0.0000
vn 0.8971 0.4418 -0.0000
vn 0.8544 -0.0107 -0.5194
vn -0.1366 -0.9906 -0.0000
vn 0.5956 -0.0000 0.8033
vn 0.5011 -0.0000 0.8654
vn 0.0810 -0.0000 0.9967
vn 0.0810 -0.0000 -0.9967
vn -0.1366 0.9906 -0.0000
vn 0.5011 -0.0000 -0.8654
vn 0.5956 -0.0000 -0.8033
vn 0.6147 -0.0000 0.7888
vn 0.6147 -0.0000 -0.7888
vt 0.625000 0.500000
vt 0.375000 0.500000
vt 0.625000 0.750000
vt 0.375000 0.750000
vt 0.625000 0.250000
vt 0.125000 0.500000
vt 0.375000 0.250000
vt 0.625000 1.000000
vt 0.625000 0.000000
vt 0.125000 0.750000
vt 0.375000 1.000000
vt 0.375000 0.000000
vt 0.625000 0.750000
vt 0.625000 0.000000
vt 0.625000 1.000000
vt 0.625000 0.500000
vt 0.625000 0.250000
vt 0.625000 0.750000
vt 0.625000 0.000000
vt 0.625000 1.000000
vt 0.625000 0.500000
vt 0.625000 0.250000
vt 0.625000 0.750000
vt 0.625000 0.000000
vt 0.875000 0.750000
vt 0.625000 1.000000
vt 0.625000 0.500000
vt 0.625000 0.250000
vt 0.875000 0.500000
vt 0.125000 0.625000
vt 0.375000 0.125000
vt 0.625000 0.625000
vt 0.625000 0.125000
vt 0.375000 0.625000
vt 0.625000 0.625000
vt 0.625000 0.125000
vt 0.625000 0.625000
vt 0.625000 0.125000
vt 0.625000 0.625000
vt 0.875000 0.625000
vt 0.625000 0.125000
vt 0.625000 0.500000
vt 0.375000 0.500000
vt 0.375000 0.625000
vt 0.625000 0.625000
vt 0.625000 0.500000
vt 0.375000 0.500000
vt 0.375000 0.625000
vt 0.625000 0.625000
vt 0.625000 0.500000
vt 0.375000 0.500000
vt 0.375000 0.625000
vt 0.625000 0.625000
vt 0.625000 0.187500
vt 0.375000 0.562500
vt 0.625000 0.187500
vt 0.625000 0.187500
vt 0.625000 0.187500
vt 0.875000 0.562500
vt 0.125000 0.562500
vt 0.375000 0.187500
vt 0.625000 0.562500
vt 0.625000 0.562500
vt 0.625000 0.562500
vt 0.625000 0.562500
vt 0.375000 0.562500
vt 0.625000 0.562500
vt 0.375000 0.562500
vt 0.625000 0.562500
vt 0.375000 0.562500
vt 0.625000 0.562500
vt 0.375000 0.562500
vt 0.375000 0.500000
vt 0.375000 0.562500
vt 0.375000 0.500000
vt 0.375000 0.562500
vt 0.375000 0.500000
vt 0.375000 0.562500
vt 0.375000 0.500000
vt 0.375000 0.625000
vt 0.375000 0.625000
vt 0.375000 0.562500
vt 0.375000 0.562500
vt 0.375000 0.625000
vt 0.375000 0.625000
vt 0.375000 0.562500
vt 0.375000 0.562500
vt 0.625000 0.625000
vt 0.625000 0.750000
vt 0.625000 0.625000
vt 0.625000 0.750000
vt 0.625000 0.500000
vt 0.625000 0.500000
vt 0.625000 0.562500
vt 0.625000 0.562500
vt 0.622971 0.747971
vt 0.375000 0.750000
vt 0.622971 0.627029
vt 0.375000 0.625000
vt 0.500000 0.500000
vt 0.500000 0.000000
vt 0.500000 1.000000
vt 0.500000 0.750000
vt 0.500000 0.250000
vt 0.500000 0.625000
vt 0.500000 0.125000
vt 0.500000 0.500000
vt 0.500000 0.625000
vt 0.500000 0.500000
vt 0.500000 0.625000
vt 0.500000 0.500000
vt 0.500000 0.625000
vt 0.500000 0.562500
vt 0.500000 0.187500
vt 0.500000 0.750000
vt 0.500000 0.625000
vt 0.562500 0.000000
vt 0.562500 1.000000
vt 0.562500 0.500000
vt 0.562500 0.750000
vt 0.562500 0.250000
vt 0.562500 0.625000
vt 0.562500 0.125000
vt 0.562500 0.500000
vt 0.562500 0.625000
vt 0.562500 0.500000
vt 0.562500 0.625000
vt 0.562500 0.500000
vt 0.562500 0.625000
vt 0.562500 0.562500
vt 0.562500 0.187500
vt 0.564529 0.747971
vt 0.564529 0.627029
vt 0.437500 0.500000
vt 0.437500 0.750000
vt 0.437500 0.250000
vt 0.437500 0.625000
vt 0.437500 0.125000
vt 0.437500 0.500000
vt 0.437500 0.625000
vt 0.437500 0.500000
vt 0.437500 0.625000
vt 0.437500 0.500000
vt 0.437500 0.625000
vt 0.437500 0.562500
vt 0.437500 0.187500
vt 0.437500 0.750000
vt 0.437500 0.625000
vt 0.437500 1.000000
vt 0.437500 0.000000
vt 0.625000 0.625000
vt 0.625000 0.750000
vt 0.562500 0.750000
vt 0.562500 0.625000
vt 0.622971 0.627029
vt 0.622971 0.747971
vt 0.564529 0.747971
vt 0.564529 0.627029
vt 0.562500 0.750000
vt 0.500000 0.750000
vt 0.562500 0.625000
vt 0.500000 0.625000
vt 0.500000 0.625000
vt 0.500000 0.750000
vt 0.437500 0.750000
vt 0.437500 0.625000
vt 0.437500 0.750000
vt 0.375000 0.750000
vt 0.375000 0.625000
vt 0.437500 0.625000
s 0
usemtl Material
f 23/33/1 7/9/1 10/14/1 26/36/1
f 105/120/2 3/3/2 7/8/2 103/118/2
f 116/131/3 43/54/3 5/5/3 106/121/3
f 21/30/4 24/34/4 4/4/4 8/10/4
f 107/122/5 22/32/5 135/151/5 138/154/5
f 106/121/5 5/5/5 1/1/5 104/119/5
f 26/36/6 10/14/6 14/19/6 28/38/6
f 49/62/7 1/1/7 11/16/7 50/63/7
f 1/1/8 5/5/8 12/17/8 11/16/8
f 7/8/9 3/3/9 9/13/9 10/15/9
f 28/38/3 14/19/3 18/24/3 30/41/3
f 10/15/10 9/13/10 13/18/10 14/20/10
f 11/16/11 12/17/11 16/22/11 15/21/11
f 50/63/12 11/16/12 15/21/12 51/64/12
f 29/39/13 30/40/13 18/25/13 17/23/13
f 14/20/2 13/18/2 17/23/2 18/26/2
f 15/21/5 16/22/5 20/28/5 19/27/5
f 13/18/4 27/37/4 75/88/4 76/89/4
f 17/23/2 13/18/2 76/89/2 78/91/2
f 52/65/13 47/59/13 30/40/13 29/39/13
f 9/13/12 25/35/12 27/37/12 13/18/12
f 46/57/3 28/38/3 30/41/3 47/58/3
f 3/3/7 22/32/7 25/35/7 9/13/7
f 45/56/6 26/36/6 28/38/6 46/57/6
f 44/55/14 2/2/14 60/73/14 59/72/14
f 48/60/4 44/55/4 24/34/4 21/30/4
f 103/117/3 7/9/3 23/33/3 108/123/3
f 43/54/1 23/33/1 26/36/1 45/56/1
f 54/67/15 34/45/15 38/49/15 56/69/15
f 122/137/2 24/34/2 33/44/2 125/140/2
f 49/62/16 22/32/16 34/45/16 54/67/16
f 104/119/5 1/1/5 31/42/5 109/124/5
f 56/69/13 38/49/13 42/53/13 58/71/13
f 109/124/17 31/42/17 35/46/17 111/126/17
f 125/140/18 33/44/18 37/48/18 127/142/18
f 53/66/19 32/43/19 36/47/19 55/68/19
f 115/130/20 58/71/20 42/53/20 114/129/20
f 111/126/5 35/46/5 39/50/5 113/128/5
f 127/142/2 37/48/2 41/52/2 129/144/2
f 55/68/4 36/47/4 40/51/4 57/70/4
f 37/48/4 55/68/4 57/70/4 41/52/4
f 113/128/20 39/50/20 58/71/20 115/130/20
f 33/44/19 53/66/19 55/68/19 37/48/19
f 35/46/13 56/69/13 58/71/13 39/50/13
f 1/1/16 49/62/16 54/67/16 31/42/16
f 31/42/15 54/67/15 56/69/15 35/46/15
f 5/5/1 43/54/1 45/56/1 12/17/1
f 6/6/4 2/2/4 44/55/4 48/60/4
f 33/44/21 24/34/21 68/81/21 67/80/21
f 12/17/6 45/56/6 46/57/6 16/22/6
f 16/22/3 46/57/3 47/58/3 20/28/3
f 19/27/13 20/29/13 47/59/13 52/65/13
f 19/27/13 52/65/13 82/95/13 79/92/13
f 25/35/12 50/63/12 51/64/12 27/37/12
f 22/32/7 49/62/7 50/63/7 25/35/7
f 108/123/3 23/33/3 43/54/3 116/131/3
f 62/75/22 61/74/22 65/78/22 66/79/22
f 2/2/23 32/43/23 62/75/23 60/73/23
f 53/66/24 44/55/24 59/72/24 61/74/24
f 32/43/25 53/66/25 61/74/25 62/75/25
f 63/76/26 64/77/26 66/79/26 65/78/26
f 60/73/5 62/75/5 66/79/5 64/77/5
f 59/72/27 60/73/27 64/77/27 63/76/27
f 61/74/2 59/72/2 63/76/2 65/78/2
f 69/82/5 70/83/5 74/87/5 73/86/5
f 24/34/28 44/55/28 69/82/28 68/81/28
f 53/66/29 33/44/29 67/80/29 70/83/29
f 44/55/30 53/66/30 70/83/30 69/82/30
f 72/85/26 73/86/26 74/87/26 71/84/26
f 68/81/27 69/82/27 73/86/27 72/85/27
f 70/83/22 67/80/22 71/84/22 74/87/22
f 67/80/2 68/81/2 72/85/2 71/84/2
f 81/94/20 80/93/20 79/92/20 82/95/20
f 76/89/20 75/88/20 77/90/20 78/91/20
f 75/88/20 81/94/20 82/95/20 77/90/20
f 15/21/5 19/27/5 79/92/5 80/93/5
f 51/64/4 15/21/4 80/93/4 81/94/4
f 52/65/13 29/39/13 77/90/13 82/95/13
f 27/37/4 51/64/4 81/94/4 75/88/4
f 29/39/13 17/23/13 78/91/13 77/90/13
f 117/132/31 118/133/31 142/158/31 141/157/31
f 4/4/4 24/34/4 86/99/4 84/97/4
f 120/135/2 4/4/2 84/97/2 132/147/2
f 22/32/13 3/3/13 136/152/13 135/151/13
f 105/120/2 89/103/2 101/115/2 137/153/2
f 101/115/32 132/147/32 149/165/32 148/164/32
f 123/138/3 92/106/3 100/114/3 131/146/3
f 128/143/20 97/111/20 99/113/20 130/145/20
f 112/127/2 96/110/2 98/112/2 114/129/2
f 126/141/5 95/109/5 97/111/5 128/143/5
f 130/145/20 99/113/20 98/112/20 129/144/20
f 110/125/18 94/108/18 96/110/18 112/127/18
f 124/139/17 93/107/17 95/109/17 126/141/17
f 119/134/5 87/100/5 93/107/5 124/139/5
f 107/122/2 91/105/2 94/108/2 110/125/2
f 134/150/3 88/101/3 92/106/3 123/138/3
f 121/136/5 90/104/5 87/100/5 119/134/5
f 122/137/5 91/105/5 102/116/5 133/148/5
f 131/146/3 100/114/3 90/104/3 121/136/3
f 120/135/2 89/103/2 88/102/2 134/149/2
f 22/32/2 107/122/2 110/125/2 34/45/2
f 34/45/18 110/125/18 112/127/18 38/49/18
f 38/49/2 112/127/2 114/129/2 42/53/2
f 3/3/2 105/120/2 137/153/2 136/152/2
f 137/153/33 101/115/33 144/160/33 143/159/33
f 92/106/3 108/123/3 116/131/3 100/114/3
f 97/111/20 113/128/20 115/130/20 99/113/20
f 95/109/5 111/126/5 113/128/5 97/111/5
f 99/113/20 115/130/20 114/129/20 98/112/20
f 93/107/17 109/124/17 111/126/17 95/109/17
f 87/100/5 104/119/5 109/124/5 93/107/5
f 88/101/3 103/117/3 108/123/3 92/106/3
f 90/104/5 106/121/5 104/119/5 87/100/5
f 91/105/5 107/122/5 138/154/5 102/116/5
f 100/114/3 116/131/3 106/121/3 90/104/3
f 89/103/2 105/120/2 103/118/2 88/102/2
f 4/4/2 120/135/2 134/149/2 8/11/2
f 48/61/3 131/146/3 121/136/3 6/7/3
f 24/34/5 122/137/5 133/148/5 86/99/5
f 6/7/5 121/136/5 119/134/5 2/2/5
f 8/12/3 134/150/3 123/138/3 21/31/3
f 2/2/5 119/134/5 124/139/5 32/43/5
f 32/43/17 124/139/17 126/141/17 36/47/17
f 57/70/20 130/145/20 129/144/20 41/52/20
f 36/47/5 126/141/5 128/143/5 40/51/5
f 40/51/20 128/143/20 130/145/20 57/70/20
f 21/31/3 123/138/3 131/146/3 48/61/3
f 84/97/4 86/99/4 153/169/4 152/168/4
f 89/103/2 120/135/2 132/147/2 101/115/2
f 96/110/2 127/142/2 129/144/2 98/112/2
f 94/108/18 125/140/18 127/142/18 96/110/18
f 91/105/2 122/137/2 125/140/2 94/108/2
f 83/96/20 85/98/20 135/151/20 136/152/20
f 117/132/20 83/96/20 136/152/20 137/153/20
f 85/98/20 118/133/20 138/154/20 135/151/20
f 118/133/20 117/132/20 137/153/20 138/154/20
f 142/158/20 139/155/20 140/156/20 141/157/20
f 83/96/34 117/132/34 141/157/34 140/156/34
f 118/133/35 85/98/35 139/155/35 142/158/35
f 85/98/36 83/96/36 140/156/36 139/155/36
f 146/162/20 145/161/20 143/159/20 144/160/20
f 138/154/13 137/153/13 143/159/13 145/161/13
f 101/115/4 102/116/4 146/162/4 144/160/4
f 102/116/37 138/154/37 145/161/37 146/162/37
f 150/166/20 147/163/20 148/164/20 149/165/20
f 132/147/4 133/148/4 150/166/4 149/165/4
f 133/148/38 102/116/38 147/163/38 150/166/38
f 102/116/13 101/115/13 148/164/13 147/163/13
f 153/169/20 154/170/20 151/167/20 152/168/20
f 132/147/39 84/97/39 152/168/39 151/167/39
f 133/148/13 132/147/13 151/167/13 154/170/13
f 86/99/40 133/148/40 154/170/40 153/169/40
