# Blender 3.4.1
# www.blender.org
mtllib Microwave.mtl
o Cube
v 0.558486 0.052000 -0.138194
v 0.617921 -0.007435 1.097648
v 0.558486 1.168973 -0.138194
v 0.617921 1.228408 1.097648
v -0.558486 0.052000 -0.138194
v -0.617921 -0.007435 1.097648
v -0.558486 1.168973 -0.138194
v -0.617921 1.228408 1.097648
v 0.617921 1.228408 -0.138194
v -0.617921 1.228408 -0.138194
v 0.617921 -0.007435 -0.138194
v -0.617921 -0.007435 -0.138194
v 0.608352 1.218838 -0.170137
v -0.608352 1.218838 -0.170137
v 0.608352 0.002135 -0.170137
v -0.608352 0.002135 -0.170137
v 0.608352 1.218838 -2.057708
v -0.608352 1.218838 -2.057708
v 0.608352 0.002135 -2.057708
v -0.608352 0.002135 -2.057708
v 0.640648 0.033598 -0.218948
v 0.640648 1.187374 -0.218948
v 0.640648 0.033598 -2.008896
v 0.640648 1.187374 -2.008896
v 0.667579 0.000432 -0.167495
v 0.667579 1.220541 -0.167495
v 0.667579 0.000432 -2.060349
v 0.667579 1.220541 -2.060349
v 0.795768 0.000432 -0.167495
v 0.795768 1.220541 -0.167495
v 0.795768 0.000432 -2.060349
v 0.795768 1.220541 -2.060349
v 0.794093 -0.007435 -0.138194
v 0.794093 -0.007435 1.097648
v 0.794093 1.228408 -0.138194
v 0.794093 1.228408 1.097648
vn -0.0000 0.5394 0.8421
vn -0.0000 1.0000 -0.0000
vn -1.0000 -0.0000 -0.0000
vn -0.0000 -0.0000 1.0000
vn -0.0000 -1.0000 -0.0000
vn -0.0000 -0.0000 -1.0000
vn -0.0000 -0.5394 0.8421
vn 0.5394 -0.0000 0.8421
vn -0.5394 -0.0000 0.8421
vn 0.8340 -0.0000 -0.5518
vn -0.7763 -0.6304 -0.0000
vn 0.6978 0.7163 -0.0000
vn 0.8340 -0.0000 0.5518
vn 0.6978 -0.7163 -0.0000
vn -0.8860 -0.0000 0.4637
vn -0.7763 0.6304 -0.0000
vn -0.8860 -0.0000 -0.4637
vn 1.0000 -0.0000 -0.0000
vt 0.637023 0.512023
vt 0.375000 0.500000
vt 0.637023 0.737977
vt 0.375000 0.750000
vt 0.862977 0.512023
vt 0.125000 0.500000
vt 0.375000 0.250000
vt 0.862977 0.737977
vt 0.375000 1.000000
vt 0.375000 0.000000
vt 0.125000 0.750000
vt 0.625000 0.750000
vt 0.625000 1.000000
vt 0.625000 0.000000
vt 0.875000 0.750000
vt 0.625000 0.500000
vt 0.625000 0.250000
vt 0.875000 0.500000
vt 0.637023 0.737977
vt 0.862977 0.737977
vt 0.637023 0.512023
vt 0.862977 0.512023
vt 0.637023 0.737977
vt 0.862977 0.737977
vt 0.637023 0.512023
vt 0.862977 0.512023
vt 0.637023 0.512023
vt 0.637023 0.737977
vt 0.637023 0.512023
vt 0.637023 0.737977
vt 0.637023 0.512023
vt 0.637023 0.737977
vt 0.637023 0.512023
vt 0.637023 0.737977
vt 0.637023 0.512023
vt 0.637023 0.737977
vt 0.637023 0.512023
vt 0.637023 0.737977
vt 0.625000 0.500000
vt 0.375000 0.500000
vt 0.625000 0.750000
vt 0.375000 0.750000
s 0
usemtl Material
f 7/8/1 3/3/1 13/19/1 14/20/1
f 4/4/2 9/12/2 10/13/2 8/9/2
f 8/10/3 10/14/3 12/17/3 6/7/3
f 6/6/4 2/2/4 4/4/4 8/11/4
f 2/2/5 11/16/5 33/39/5 34/40/5
f 6/7/5 12/17/5 11/16/5 2/2/5
f 3/3/6 7/8/6 10/15/6 9/12/6
f 1/1/6 3/3/6 9/12/6 11/16/6
f 7/8/6 5/5/6 12/18/6 10/15/6
f 5/5/6 1/1/6 11/16/6 12/18/6
f 15/21/5 16/22/5 20/26/5 19/25/5
f 1/1/7 5/5/7 16/22/7 15/21/7
f 3/3/8 1/1/8 15/21/8 13/19/8
f 5/5/9 7/8/9 14/20/9 16/22/9
f 19/25/6 20/26/6 18/24/6 17/23/6
f 19/25/10 17/23/10 24/30/10 23/29/10
f 16/22/3 14/20/3 18/24/3 20/26/3
f 14/20/2 13/19/2 17/23/2 18/24/2
f 21/27/11 23/29/11 27/33/11 25/31/11
f 17/23/12 13/19/12 22/28/12 24/30/12
f 13/19/13 15/21/13 21/27/13 22/28/13
f 15/21/14 19/25/14 23/29/14 21/27/14
f 25/31/5 27/33/5 31/37/5 29/35/5
f 22/28/15 21/27/15 25/31/15 26/32/15
f 24/30/16 22/28/16 26/32/16 28/34/16
f 23/29/17 24/30/17 28/34/17 27/33/17
f 30/36/18 29/35/18 31/37/18 32/38/18
f 26/32/4 25/31/4 29/35/4 30/36/4
f 28/34/2 26/32/2 30/36/2 32/38/2
f 27/33/6 28/34/6 32/38/6 31/37/6
f 34/40/18 33/39/18 35/41/18 36/42/18
f 4/4/4 2/2/4 34/40/4 36/42/4
f 11/16/6 9/12/6 35/41/6 33/39/6
f 9/12/2 4/4/2 36/42/2 35/41/2
