# Blender 3.4.1
# www.blender.org
mtllib End_Table2.mtl
o Cube
v 1.944577 4.410154 -1.877970
v 1.933167 0.568168 -1.932467
v 1.944577 4.410154 1.941069
v 1.933167 0.568168 1.932467
v -1.989945 4.490580 -1.989945
v -1.989945 0.510689 -1.989945
v -1.989945 4.490580 1.989945
v -1.989945 0.510689 1.989945
v 1.944577 2.581060 -1.877970
v -1.989945 2.500634 1.989945
v 1.944577 2.581060 1.941069
v -1.989945 2.500634 -1.989945
v 1.989945 4.490580 -1.989945
v 1.989945 4.490580 1.989945
v 1.933167 2.443156 -1.932467
v 1.933167 2.443156 1.932467
v 1.989945 2.500634 -1.989945
v 1.989945 0.510689 -1.989945
v 1.989945 2.500634 1.989945
v 1.989945 0.510689 1.989945
v -1.549001 0.510689 1.989945
v 1.605740 0.510689 1.989945
v 1.583044 0.510689 -1.989945
v -1.571696 0.510689 -1.989945
v 1.989945 0.510689 1.617088
v 1.989945 0.510689 -1.583045
v -1.989945 0.510689 -1.583045
v -1.989945 0.510689 1.594392
v -1.549000 0.510689 1.594392
v 1.605741 0.510689 1.617088
v 1.583045 0.510689 -1.583045
v -1.571696 0.510689 -1.583045
v -1.679441 -0.135484 1.594392
v -1.679441 -0.135484 1.989945
v -1.372560 -0.135484 -1.989945
v -1.686201 -0.135484 -1.989945
v 1.408516 -0.135484 1.989945
v 1.684289 -0.135484 1.989945
v 1.686486 -0.135484 -1.583044
v 1.686486 -0.135484 -1.989945
v -1.359814 -0.135484 1.989945
v 1.386813 -0.135484 -1.989945
v 1.684289 -0.135484 1.617088
v -1.686201 -0.135484 -1.583044
v -1.359814 -0.135484 1.594392
v 1.408517 -0.135484 1.617088
v 1.386813 -0.135484 -1.583044
v -1.372560 -0.135484 -1.583044
vn -0.0000 1.0000 -0.0000
vn -0.0000 -0.0000 1.0000
vn -1.0000 -0.0000 -0.0000
vn 1.0000 -0.0000 -0.0000
vn -0.0000 -0.0000 -1.0000
vn 0.8710 -0.4913 -0.0000
vn 0.9268 -0.0000 0.3755
vn 0.7329 -0.0000 -0.6803
vn 0.8710 0.4913 -0.0000
vn 0.7114 -0.0000 0.7028
vn 0.7114 -0.0000 -0.7028
vn 0.7114 0.7028 -0.0000
vn 0.7114 -0.7028 -0.0000
vn -0.0000 -1.0000 -0.0000
vn 0.9556 0.2945 -0.0000
vn -0.9050 -0.4254 -0.0000
vn -0.9013 -0.4331 -0.0000
vn 0.9597 0.2810 -0.0000
vn -0.9564 0.2919 -0.0000
vn 0.9040 -0.4276 -0.0000
vn 0.9052 -0.4251 -0.0000
vn -0.9569 0.2906 -0.0000
vt 0.619948 0.505052
vt 0.378611 0.503611
vt 0.619948 0.744948
vt 0.378611 0.746389
vt 0.875000 0.500000
vt 0.625000 0.250000
vt 0.375000 0.250000
vt 0.875000 0.750000
vt 0.625000 1.000000
vt 0.625000 0.000000
vt 0.375000 1.000000
vt 0.375000 0.000000
vt 0.505052 0.505052
vt 0.500000 0.000000
vt 0.500000 1.000000
vt 0.505052 0.744948
vt 0.500000 0.250000
vt 0.625000 0.500000
vt 0.625000 0.750000
vt 0.496389 0.503611
vt 0.496389 0.746389
vt 0.500000 0.500000
vt 0.375000 0.500000
vt 0.500000 0.750000
vt 0.375000 0.750000
vt 0.375000 0.972302
vt 0.152698 0.750000
vt 0.375000 0.774134
vt 0.350866 0.750000
vt 0.375000 0.474440
vt 0.349440 0.500000
vt 0.151273 0.500000
vt 0.375000 0.276273
vt 0.375000 0.726579
vt 0.375000 0.525560
vt 0.125000 0.525560
vt 0.375000 0.224440
vt 0.125000 0.725153
vt 0.375000 0.024847
vt 0.152698 0.725153
vt 0.350866 0.726579
vt 0.349440 0.525560
vt 0.151273 0.525560
vt 0.125000 0.725153
vt 0.375000 0.024847
vt 0.375000 1.000000
vt 0.125000 0.750000
vt 0.375000 0.000000
vt 0.151273 0.500000
vt 0.375000 0.276273
vt 0.125000 0.500000
vt 0.375000 0.250000
vt 0.375000 0.774134
vt 0.350866 0.750000
vt 0.375000 0.750000
vt 0.375000 0.525560
vt 0.375000 0.500000
vt 0.375000 0.972302
vt 0.152698 0.750000
vt 0.375000 0.474440
vt 0.349440 0.500000
vt 0.375000 0.726579
vt 0.125000 0.525560
vt 0.375000 0.224440
vt 0.152698 0.725153
vt 0.350866 0.726579
vt 0.349440 0.525560
vt 0.151273 0.525560
s 0
usemtl Material
f 13/18/1 5/5/1 7/8/1 14/19/1
f 19/24/2 14/19/2 7/9/2 10/15/2
f 10/14/3 7/10/3 5/6/3 12/17/3
f 32/43/2 27/36/2 44/63/2 48/68/2
f 9/13/4 1/1/4 3/3/4 11/16/4
f 12/17/5 5/6/5 13/18/5 17/22/5
f 6/7/5 12/17/5 17/22/5 18/23/5 23/30/5 24/33/5
f 2/2/4 15/20/4 16/21/4 4/4/4
f 8/12/3 10/14/3 12/17/3 6/7/3 27/37/3 28/39/3
f 20/25/2 19/24/2 10/15/2 8/11/2 21/26/2 22/28/2
f 3/3/6 1/1/6 13/18/6 14/19/6
f 1/1/7 9/13/7 17/22/7 13/18/7
f 11/16/8 3/3/8 14/19/8 19/24/8
f 9/13/9 11/16/9 19/24/9 17/22/9
f 15/20/10 2/2/10 18/23/10 17/22/10
f 4/4/11 16/21/11 19/24/11 20/25/11
f 2/2/12 4/4/12 20/25/12 25/34/12 26/35/12 18/23/12
f 16/21/13 15/20/13 17/22/13 19/24/13
f 36/51/14 35/49/14 48/68/14 44/63/14
f 27/36/14 32/43/14 24/32/14 23/31/14 31/42/14 26/35/14 25/34/14 30/41/14 22/29/14 21/27/14 29/40/14 28/38/14
f 21/26/2 8/11/2 34/46/2 41/58/2
f 24/32/15 32/43/15 48/68/15 35/49/15
f 27/37/16 6/7/16 36/52/16 44/64/16
f 33/44/14 45/65/14 41/59/14 34/47/14
f 37/54/14 46/66/14 43/62/14 38/55/14
f 39/56/14 47/67/14 42/61/14 40/57/14
f 28/38/5 29/40/5 45/65/5 33/44/5
f 8/12/17 28/39/17 33/45/17 34/48/17
f 20/25/2 22/28/2 37/53/2 38/55/2
f 29/40/18 21/27/18 41/59/18 45/65/18
f 6/7/5 24/33/5 35/50/5 36/52/5
f 23/30/5 18/23/5 40/57/5 42/60/5
f 30/41/5 25/34/5 43/62/5 46/66/5
f 22/29/19 30/41/19 46/66/19 37/54/19
f 25/34/20 20/25/20 38/55/20 43/62/20
f 18/23/21 26/35/21 39/56/21 40/57/21
f 26/35/2 31/42/2 47/67/2 39/56/2
f 31/42/22 23/31/22 42/61/22 47/67/22
