# Blender 3.4.1
# www.blender.org
mtllib Dining_Chair.mtl
o Cube
v 2.525498 4.994738 -2.439819
v 2.423439 3.917741 -2.015938
v 2.525498 4.994738 2.439819
v 2.423439 3.917741 2.015938
v -2.525498 4.994738 -2.439819
v -2.045872 3.922366 -2.292186
v -2.525498 4.994738 2.439819
v -2.423421 3.917383 2.020542
v -2.745068 4.616924 -2.439819
v -2.745068 4.616924 2.439819
v 2.745068 4.616924 -2.439819
v 2.745068 4.616924 2.439819
v -2.068323 4.374357 -2.312141
v -2.446368 4.379341 2.040937
v 2.446350 4.378983 -2.036301
v 2.446350 4.378983 2.036301
v 1.988903 4.368911 2.311900
v 2.068323 4.374357 -2.312141
v 1.966993 3.927813 2.292427
v 2.045872 3.922366 -2.292186
v 2.447412 4.400356 -2.313288
v -2.446368 4.379341 -2.040937
v 2.422378 3.896368 -2.291038
v -2.423421 3.917383 -2.020542
v 2.550478 4.385939 -2.344154
v 2.525444 3.881951 -2.321903
v 2.549416 4.364566 -2.067166
v 2.526505 3.903324 -2.046803
v 2.171390 4.359941 -2.343006
v 2.148938 3.907949 -2.323051
v -2.447412 4.400356 -2.313288
v -1.988903 4.368911 2.311900
v -2.422378 3.896368 -2.291038
v -1.966993 3.927813 2.292427
v -2.447412 4.400356 2.313288
v 2.447412 4.400356 2.313288
v -2.422378 3.896368 2.291038
v 2.422378 3.896368 2.291038
v 2.525758 3.881907 2.321997
v 2.550792 4.385895 2.344248
v 2.526819 3.903280 2.046897
v 2.549730 4.364522 2.067260
v 2.070373 3.913352 2.323385
v 2.092284 4.354450 2.342859
v -2.564488 4.383979 -2.348349
v -2.539454 3.879991 -2.326099
v -2.185400 4.357981 -2.347201
v -2.162948 3.905990 -2.327246
v -2.563444 4.362964 -2.075997
v -2.540498 3.901006 -2.055603
v -2.520106 3.882698 2.320305
v -2.545140 4.386686 2.342555
v -2.521150 3.903713 2.049809
v -2.544096 4.365671 2.070203
v -2.064721 3.914143 2.321693
v -2.086632 4.355240 2.341167
v -2.422378 3.896368 -2.015515
v -2.422378 3.896368 2.013629
v 2.422378 3.896368 2.022413
v 2.422378 3.896368 -2.007039
v -1.963366 3.896368 2.291038
v 1.949564 3.896368 2.291038
v 1.928530 3.896368 -2.291038
v -1.972073 3.896368 -2.291038
v -1.940476 3.896368 2.020163
v 1.937793 3.896368 2.027933
v -1.990594 3.896368 -2.012650
v 1.939049 3.896368 -2.017485
v -1.998915 0.086709 -2.264754
v -2.449220 0.086709 -2.264754
v -2.449220 0.086709 -1.989231
v -2.017436 0.086709 -1.986366
v 2.559944 0.162491 -2.007039
v 2.559944 0.162491 -2.291038
v 2.066096 0.162491 -2.291038
v 2.076615 0.162491 -2.017485
v 1.949564 0.070286 2.291038
v 2.422378 0.070286 2.291038
v 2.422378 0.070286 2.022413
v 1.937793 0.070286 2.027933
v -2.422378 -0.076235 2.013629
v -2.422378 -0.076235 2.291038
v -1.963366 -0.076235 2.291038
v -1.940476 -0.076235 2.020163
v -2.422378 4.590115 -2.015515
v -2.422378 4.590115 2.013629
v 2.422378 4.590115 2.022413
v 2.422378 4.590115 -2.007039
v -1.963366 4.590115 2.291038
v 1.949564 4.590115 2.291038
v 1.928530 4.590115 -2.291038
v -1.972073 4.590115 -2.291038
v -1.940476 4.590115 2.020163
v 1.937793 4.590115 2.027933
v -1.990594 4.590115 -2.012650
v 1.939049 4.590115 -2.017485
v 2.525498 4.994738 2.145855
v -2.745068 4.616924 2.116711
v -2.525498 4.994738 2.166100
v -2.447412 4.400356 2.039507
v 2.447412 4.400356 2.037689
v 2.745068 4.616924 2.060964
v 2.525498 10.376254 2.439819
v -2.525498 10.376254 2.439819
v 2.525498 10.376254 2.145855
v -2.525498 10.376254 2.166100
vn -0.0000 1.0000 -0.0000
vn -0.0000 -0.0000 1.0000
vn -0.8646 0.5025 -0.0000
vn -0.0000 -0.0069 -1.0000
vn 0.8646 0.5025 -0.0000
vn -0.0000 -0.0000 -1.0000
vn -0.5883 -0.8086 -0.0000
vn -0.0000 -0.5045 -0.8634
vn -0.0000 -0.5045 0.8634
vn 0.5883 -0.8086 -0.0000
vn -0.9988 -0.0496 -0.0000
vn -0.0000 -0.0441 -0.9990
vn -0.0000 -0.0441 0.9990
vn 0.9988 -0.0496 -0.0000
vn 0.2903 0.0278 0.9565
vn -0.2903 -0.0278 0.9565
vn 0.1153 -0.9903 0.0774
vn -0.0678 -0.9714 0.2274
vn -0.2903 -0.0278 -0.9565
vn 0.1606 0.9841 0.0765
vn -0.0577 0.8166 -0.5743
vn -0.1153 -0.9903 0.0774
vn -0.2903 0.0278 0.9565
vn -0.2903 0.0278 -0.9565
vn -0.1606 0.9841 -0.0765
vn -0.0577 0.8166 0.5743
vn 0.1606 0.9841 -0.0765
vn -0.0678 -0.9714 -0.2274
vn -0.1153 -0.9903 -0.0774
vn 0.2903 0.0278 -0.9565
vn 0.0577 0.8166 -0.5743
vn 0.0678 -0.9714 0.2274
vn -0.1606 0.9841 0.0765
vn 0.2903 -0.0278 -0.9565
vn 0.0577 0.8166 0.5743
vn 0.2903 -0.0278 0.9565
vn 0.1153 -0.9903 -0.0774
vn 0.0678 -0.9714 -0.2274
vn -0.0000 -1.0000 -0.0000
vn -0.0114 -0.0000 -0.9999
vn 0.9964 -0.0000 0.0842
vn -0.9990 -0.0000 0.0447
vn 0.9993 0.0368 -0.0000
vn -0.0066 0.0069 1.0000
vn 0.9978 -0.0066 0.0664
vn -1.0000 0.0070 -0.0000
vn -0.0216 -0.0008 0.9998
vn -0.9986 -0.0368 0.0384
vn 1.0000 -0.0000 -0.0000
vn -1.0000 -0.0000 -0.0000
vn 0.0136 -0.0000 -0.9999
vn -0.9993 -0.0000 0.0384
vn -0.0066 -0.0000 1.0000
vn 0.9978 -0.0000 0.0664
vn -0.0216 -0.0000 0.9998
vn -0.0040 -0.0000 -1.0000
vt 0.625000 0.500000
vt 0.367357 0.521717
vt 0.625000 0.750000
vt 0.367357 0.728283
vt 0.875000 0.500000
vt 0.625000 0.250000
vt 0.150927 0.507564
vt 0.625000 1.000000
vt 0.625000 0.000000
vt 0.132644 0.728519
vt 0.125000 0.500000
vt 0.375000 0.250000
vt 0.375000 1.000000
vt 0.375000 0.000000
vt 0.125000 0.750000
vt 0.375000 0.500000
vt 0.375000 0.750000
vt 0.149840 0.506541
vt 0.131533 0.729564
vt 0.368466 0.520673
vt 0.368466 0.729326
vt 0.346314 0.743446
vt 0.350160 0.506541
vt 0.345253 0.742449
vt 0.349073 0.507564
vt 0.368517 0.506482
vt 0.131533 0.520436
vt 0.367305 0.507622
vt 0.132644 0.521481
vt 0.368517 0.506482
vt 0.367305 0.507622
vt 0.368466 0.520673
vt 0.367357 0.521717
vt 0.350160 0.506541
vt 0.349073 0.507564
vt 0.131483 0.506482
vt 0.153686 0.743446
vt 0.132695 0.507622
vt 0.154747 0.742449
vt 0.131483 0.743517
vt 0.368517 0.743517
vt 0.132695 0.742377
vt 0.367305 0.742377
vt 0.367305 0.742377
vt 0.368517 0.743517
vt 0.367357 0.728283
vt 0.368466 0.729326
vt 0.345253 0.742449
vt 0.346314 0.743446
vt 0.131483 0.506482
vt 0.132695 0.507622
vt 0.149840 0.506541
vt 0.150927 0.507564
vt 0.131533 0.520436
vt 0.132644 0.521481
vt 0.132695 0.742377
vt 0.131483 0.743517
vt 0.132644 0.728519
vt 0.131533 0.729564
vt 0.154747 0.742449
vt 0.153686 0.743446
vt 0.132695 0.521738
vt 0.132695 0.728165
vt 0.367305 0.728615
vt 0.367305 0.522173
vt 0.154923 0.742377
vt 0.344409 0.742377
vt 0.343390 0.507622
vt 0.154501 0.507622
vt 0.156031 0.728500
vt 0.343839 0.728898
vt 0.153604 0.521885
vt 0.343900 0.521637
vt 0.154501 0.507622
vt 0.132695 0.507622
vt 0.132695 0.521738
vt 0.153604 0.521885
vt 0.367305 0.522173
vt 0.367305 0.507622
vt 0.343390 0.507622
vt 0.343900 0.521637
vt 0.344409 0.742377
vt 0.367305 0.742377
vt 0.367305 0.728615
vt 0.343839 0.728898
vt 0.132695 0.728165
vt 0.132695 0.742377
vt 0.154923 0.742377
vt 0.156031 0.728500
vt 0.132695 0.521738
vt 0.132695 0.728165
vt 0.367305 0.728615
vt 0.367305 0.522173
vt 0.154923 0.742377
vt 0.344409 0.742377
vt 0.343390 0.507622
vt 0.154501 0.507622
vt 0.156031 0.728500
vt 0.343839 0.728898
vt 0.153604 0.521885
vt 0.343900 0.521637
vt 0.625000 0.734939
vt 0.375000 0.016554
vt 0.125000 0.733446
vt 0.625000 0.014024
vt 0.875000 0.735977
vt 0.131483 0.729491
vt 0.368517 0.729398
vt 0.375000 0.730590
vt 0.625000 0.750000
vt 0.875000 0.750000
vt 0.625000 1.000000
vt 0.625000 0.000000
vt 0.625000 0.734939
vt 0.625000 0.014024
vt 0.875000 0.735977
s 0
usemtl Material
f 1/1/1 5/5/1 99/106/1 97/102/1
f 12/17/2 3/3/2 7/8/2 10/13/2
f 10/14/3 7/9/3 99/105/3 98/103/3
f 33/38/4 64/69/4 69/74/4 70/75/4
f 11/16/5 1/1/5 97/102/5 102/109/5
f 9/12/6 5/6/6 1/1/6 11/16/6
f 31/36/7 100/107/7 98/104/7 9/11/7
f 21/26/8 31/36/8 9/11/8 11/16/8
f 35/40/9 36/41/9 12/17/9 10/15/9
f 36/41/10 101/108/10 102/109/10 12/17/10
f 24/29/11 8/10/11 14/19/11 22/27/11
f 20/25/12 6/7/12 13/18/12 18/23/12
f 34/39/13 19/24/13 17/22/13 32/37/13
f 4/4/14 2/2/14 15/20/14 16/21/14
f 16/21/14 101/108/14 36/41/14
f 2/2/14 4/4/14 38/43/14 59/64/14 60/65/14 23/28/14
f 15/20/15 2/2/15 28/33/15 27/32/15
f 17/22/16 19/24/16 43/48/16 44/49/16
f 18/23/12 13/18/12 31/36/12 21/26/12
f 6/7/12 20/25/12 23/28/12 63/68/12 64/69/12 33/38/12
f 33/38/17 24/29/17 50/55/17 46/51/17
f 23/28/18 20/25/18 30/35/18 26/31/18
f 27/32/14 28/33/14 26/31/14 25/30/14
f 30/35/12 29/34/12 25/30/12 26/31/12
f 20/25/19 18/23/19 29/34/19 30/35/19
f 21/26/20 15/20/20 27/32/20 25/30/20
f 18/23/21 21/26/21 25/30/21 29/34/21
f 2/2/22 23/28/22 26/31/22 28/33/22
f 22/27/11 14/19/11 100/107/11 31/36/11
f 8/10/11 24/29/11 33/38/11 57/62/11 58/63/11 37/42/11
f 24/29/23 22/27/23 49/54/23 50/55/23
f 14/19/24 8/10/24 53/58/24 54/59/24
f 32/37/13 17/22/13 36/41/13 35/40/13
f 19/24/13 34/39/13 37/42/13 61/66/13 62/67/13 38/43/13
f 35/40/25 14/19/25 54/59/25 52/57/25
f 36/41/26 17/22/26 44/49/26 40/45/26
f 41/46/14 42/47/14 40/45/14 39/44/14
f 44/49/13 43/48/13 39/44/13 40/45/13
f 16/21/27 36/41/27 40/45/27 42/47/27
f 19/24/28 38/43/28 39/44/28 43/48/28
f 38/43/29 4/4/29 41/46/29 39/44/29
f 4/4/30 16/21/30 42/47/30 41/46/30
f 47/52/12 48/53/12 46/51/12 45/50/12
f 50/55/11 49/54/11 45/50/11 46/51/11
f 31/36/31 13/18/31 47/52/31 45/50/31
f 6/7/32 33/38/32 46/51/32 48/53/32
f 22/27/33 31/36/33 45/50/33 49/54/33
f 13/18/34 6/7/34 48/53/34 47/52/34
f 54/59/11 53/58/11 51/56/11 52/57/11
f 55/60/13 56/61/13 52/57/13 51/56/13
f 32/37/35 35/40/35 52/57/35 56/61/35
f 34/39/36 32/37/36 56/61/36 55/60/36
f 8/10/37 37/42/37 51/56/37 53/58/37
f 37/42/38 34/39/38 55/60/38 51/56/38
f 70/75/39 69/74/39 72/77/39 71/76/39
f 59/64/40 66/71/40 94/99/40 87/92/40
f 65/70/41 61/66/41 83/88/41 84/89/41
f 62/67/42 66/71/42 80/85/42 77/82/42
f 23/28/43 60/65/43 73/78/43 74/79/43
f 67/72/44 57/62/44 71/76/44 72/77/44
f 64/69/45 67/72/45 72/77/45 69/74/45
f 57/62/46 33/38/46 70/75/46 71/76/46
f 73/78/39 76/81/39 75/80/39 74/79/39
f 60/65/47 68/73/47 76/81/47 73/78/47
f 63/68/6 23/28/6 74/79/6 75/80/6
f 68/73/48 63/68/48 75/80/48 76/81/48
f 77/82/39 80/85/39 79/84/39 78/83/39
f 38/43/2 62/67/2 77/82/2 78/83/2
f 59/64/49 38/43/49 78/83/49 79/84/49
f 66/71/40 59/64/40 79/84/40 80/85/40
f 81/86/39 84/89/39 83/88/39 82/87/39
f 61/66/2 37/42/2 82/87/2 83/88/2
f 37/42/50 58/63/50 81/86/50 82/87/50
f 58/63/51 65/70/51 84/89/51 81/86/51
f 85/90/39 95/100/39 92/97/39 91/96/39 96/101/39 88/93/39 87/92/39 94/99/39 90/95/39 89/94/39 93/98/39 86/91/39
f 58/63/49 57/62/49 85/90/49 86/91/49
f 61/66/41 65/70/41 93/98/41 89/94/41
f 63/68/52 68/73/52 96/101/52 91/96/52
f 62/67/6 61/66/6 89/94/6 90/95/6
f 57/62/53 67/72/53 95/100/53 85/90/53
f 65/70/51 58/63/51 86/91/51 93/98/51
f 67/72/54 64/69/54 92/97/54 95/100/54
f 60/65/50 59/64/50 87/92/50 88/93/50
f 66/71/42 62/67/42 90/95/42 94/99/42
f 64/69/2 63/68/2 91/96/2 92/97/2
f 68/73/55 60/65/55 88/93/55 96/101/55
f 105/114/1 106/116/1 104/111/1 103/110/1
f 7/8/2 3/3/2 103/110/2 104/112/2
f 101/108/14 16/21/14 15/20/14 21/26/14
f 102/109/5 97/102/5 3/3/5 12/17/5
f 100/107/11 14/19/11 35/40/11
f 98/103/3 99/105/3 5/6/3 9/12/3
f 102/109/10 101/108/10 21/26/10 11/16/10
f 98/104/7 100/107/7 35/40/7 10/15/7
f 99/105/50 7/9/50 104/113/50 106/115/50
f 3/3/49 97/102/49 105/114/49 103/110/49
f 97/102/56 99/106/56 106/116/56 105/114/56
