# Blender 3.4.1
# www.blender.org
mtllib Book_Pile.mtl
o Cube
v 1.108262 1.127850 -1.602851
v 2.974924 1.147294 0.148682
v -0.145276 1.127850 -0.266919
v 1.720965 1.097931 1.484220
v 1.104095 0.639063 -1.606761
v 2.970336 0.609145 0.144377
v -0.149443 0.639063 -0.270829
v 1.716798 0.609145 1.480310
v 2.969915 0.559781 0.143982
v 1.601393 0.559781 1.602457
v 1.108683 1.177213 -1.602457
v 2.974503 1.097931 0.148287
v 1.103675 0.589700 -1.607156
v -0.259839 1.177213 -0.143982
v -0.264847 0.589700 -0.148682
v 1.606402 1.147294 1.607156
v 2.883963 1.097931 0.244778
v 2.879796 0.609145 0.240868
v 1.013555 0.639063 -1.510270
v 1.017722 1.127850 -1.506360
v 1.626258 0.609145 1.576801
v -0.235816 1.127850 -0.170428
v -0.239983 0.639063 -0.174338
v 1.630425 1.097931 1.580711
v -0.087542 0.638071 -0.212746
v -0.178082 0.638071 -0.116255
v -0.083375 1.126857 -0.208836
v -0.173915 1.126857 -0.112345
vn 0.0085 0.9999 0.0080
vn -0.6843 -0.0000 0.7292
vn -0.0085 -0.9999 -0.0080
vn -0.7292 0.0117 -0.6842
vn 0.7292 -0.0117 0.6842
vn 0.6843 -0.0000 -0.7292
vt 0.646005 0.500000
vt 0.375000 0.500000
vt 0.646005 0.728995
vt 0.353995 0.728995
vt 0.625000 0.271005
vt 0.853995 0.500000
vt 0.375000 0.271005
vt 0.146005 0.500000
vt 0.853995 0.728995
vt 0.146005 0.728995
vt 0.125000 0.500000
vt 0.375000 0.250000
vt 0.375000 1.000000
vt 0.375000 0.000000
vt 0.125000 0.750000
vt 0.625000 0.500000
vt 0.353995 0.500000
vt 0.625000 0.250000
vt 0.875000 0.500000
vt 0.625000 0.750000
vt 0.625000 1.000000
vt 0.625000 0.000000
vt 0.875000 0.750000
vt 0.375000 0.750000
vt 0.353995 0.500000
vt 0.375000 0.271005
vt 0.146005 0.500000
vt 0.853995 0.500000
vt 0.625000 0.271005
vt 0.646005 0.500000
vt 0.146005 0.728995
vt 0.646005 0.728995
vt 0.853995 0.728995
vt 0.353995 0.728995
vt 0.853995 0.728995
vt 0.853995 0.728995
vt 0.646005 0.728995
vt 0.646005 0.728995
s 0
usemtl Material
f 6/7/1 5/5/1 19/29/1 18/26/1
f 16/24/2 14/20/2 15/21/2 10/13/2
f 10/14/3 15/22/3 13/18/3 9/12/3
f 3/3/4 1/1/4 20/30/4 22/32/4
f 2/2/1 11/16/1 14/20/1 16/24/1
f 5/6/4 7/9/4 23/33/4 19/28/4
f 6/8/5 8/10/5 10/15/5 9/11/5
f 12/17/6 1/1/6 11/16/6 2/2/6
f 5/5/6 6/7/6 9/12/6 13/18/6
f 3/3/4 7/9/4 15/23/4 14/20/4
f 1/1/4 3/3/4 14/20/4 11/16/4
f 8/10/5 4/4/5 16/24/5 10/15/5
f 7/9/4 5/6/4 13/19/4 15/23/4
f 4/4/5 12/17/5 2/2/5 16/24/5
f 20/30/4 19/28/4 23/33/4 22/32/4
f 18/27/5 17/25/5 24/34/5 21/31/5
f 18/26/6 19/29/6 20/30/6 17/25/6
f 8/10/4 6/8/4 18/27/4 21/31/4
f 12/17/4 4/4/4 24/34/4 17/25/4
f 4/4/4 8/10/4 21/31/4 24/34/4
f 23/33/3 7/9/3 25/35/3 26/36/3
f 1/1/3 12/17/3 17/25/3 20/30/3
f 25/35/5 27/37/5 28/38/5 26/36/5
f 3/3/1 22/32/1 28/38/1 27/37/1
f 7/9/6 3/3/6 27/37/6 25/35/6
f 22/32/2 23/33/2 26/36/2 28/38/2
o Cube.001
v 0.077310 0.521078 -1.000000
v 2.636948 0.551510 -1.000000
v 0.077310 0.521078 0.831959
v 2.636582 0.502145 0.831959
v 0.073694 0.032272 -1.000000
v 2.632966 0.013338 -1.000000
v 0.073694 0.032272 0.831959
v 2.632966 0.013338 0.831959
v 2.632601 -0.036027 -1.000000
v 2.632601 -0.036027 1.000000
v 0.077675 0.570444 -1.000000
v 2.636582 0.502145 -1.000000
v 0.073328 -0.017093 -1.000000
v 0.077675 0.570444 1.000000
v 0.073328 -0.017093 1.000000
v 2.636948 0.551510 1.000000
v 2.636582 0.502145 -0.867682
v 2.632966 0.013338 -0.867682
v 0.073694 0.032272 -0.867682
v 0.077310 0.521078 -0.867682
v 2.632966 0.013338 0.964277
v 0.077310 0.521078 0.964277
v 0.073694 0.032272 0.964277
v 2.636582 0.502145 0.964277
v 0.158581 0.031644 0.831959
v 0.158581 0.031644 0.964277
v 0.162197 0.520450 0.831959
v 0.162197 0.520450 0.964277
vn 0.0074 1.0000 -0.0000
vn -0.0000 -0.0000 1.0000
vn -0.0074 -1.0000 -0.0000
vn -1.0000 0.0074 -0.0000
vn 1.0000 -0.0074 -0.0000
vn -0.0000 -0.0000 -1.0000
vt 0.646005 0.500000
vt 0.375000 0.500000
vt 0.646005 0.728995
vt 0.353995 0.728995
vt 0.625000 0.271005
vt 0.853995 0.500000
vt 0.375000 0.271005
vt 0.146005 0.500000
vt 0.853995 0.728995
vt 0.146005 0.728995
vt 0.125000 0.500000
vt 0.375000 0.250000
vt 0.375000 1.000000
vt 0.375000 0.000000
vt 0.125000 0.750000
vt 0.625000 0.500000
vt 0.353995 0.500000
vt 0.625000 0.250000
vt 0.875000 0.500000
vt 0.625000 0.750000
vt 0.625000 1.000000
vt 0.625000 0.000000
vt 0.875000 0.750000
vt 0.375000 0.750000
vt 0.353995 0.500000
vt 0.375000 0.271005
vt 0.146005 0.500000
vt 0.853995 0.500000
vt 0.625000 0.271005
vt 0.646005 0.500000
vt 0.146005 0.728995
vt 0.646005 0.728995
vt 0.853995 0.728995
vt 0.353995 0.728995
vt 0.853995 0.728995
vt 0.853995 0.728995
vt 0.646005 0.728995
vt 0.646005 0.728995
s 0
usemtl Material.001
f 34/45/7 33/43/7 47/67/7 46/64/7
f 44/62/8 42/58/8 43/59/8 38/51/8
f 38/52/9 43/60/9 41/56/9 37/50/9
f 31/41/10 29/39/10 48/68/10 50/70/10
f 30/40/7 39/54/7 42/58/7 44/62/7
f 33/44/10 35/47/10 51/71/10 47/66/10
f 34/46/11 36/48/11 38/53/11 37/49/11
f 40/55/12 29/39/12 39/54/12 30/40/12
f 33/43/12 34/45/12 37/50/12 41/56/12
f 31/41/10 35/47/10 43/61/10 42/58/10
f 29/39/10 31/41/10 42/58/10 39/54/10
f 36/48/11 32/42/11 44/62/11 38/53/11
f 35/47/10 33/44/10 41/57/10 43/61/10
f 32/42/11 40/55/11 30/40/11 44/62/11
f 48/68/10 47/66/10 51/71/10 50/70/10
f 46/65/11 45/63/11 52/72/11 49/69/11
f 46/64/12 47/67/12 48/68/12 45/63/12
f 36/48/10 34/46/10 46/65/10 49/69/10
f 40/55/10 32/42/10 52/72/10 45/63/10
f 32/42/10 36/48/10 49/69/10 52/72/10
f 51/71/9 35/47/9 53/73/9 54/74/9
f 29/39/9 40/55/9 45/63/9 48/68/9
f 53/73/11 55/75/11 56/76/11 54/74/11
f 31/41/7 50/70/7 56/76/7 55/75/7
f 35/47/12 31/41/12 55/75/12 53/73/12
f 50/70/8 51/71/8 54/74/8 56/76/8
o Cube.002
v -2.562548 0.552834 2.010943
v -0.540119 0.572279 0.441843
v -1.439574 0.552834 3.458355
v 0.582399 0.522915 1.889609
v -2.567062 0.064047 2.014445
v -0.545089 0.034129 0.445699
v -1.444089 0.064047 3.461858
v 0.577884 0.034129 1.893112
v -0.545545 -0.015234 0.446053
v 0.680436 -0.015234 2.026233
v -2.562092 0.602197 2.010589
v -0.540575 0.522915 0.442197
v -2.567519 0.014684 2.014799
v -1.336111 0.602197 3.590769
v -1.341537 0.014684 3.594979
v 0.685863 0.572279 2.022023
v -0.459465 0.522915 0.546740
v -0.463980 0.034129 0.550242
v -2.485953 0.064047 2.118989
v -2.481438 0.552834 2.115486
v 0.658994 0.034129 1.997655
v -1.358464 0.552834 3.562898
v -1.362979 0.064047 3.566401
v 0.663509 0.522915 1.994152
v -1.377023 0.063055 3.409825
v -1.295913 0.063055 3.514368
v -1.372508 0.551841 3.406322
v -1.291399 0.551841 3.510865
vn 0.0092 0.9999 -0.0072
vn 0.6130 -0.0000 0.7901
vn -0.0092 -0.9999 0.0072
vn -0.7900 0.0117 0.6129
vn 0.7900 -0.0117 -0.6129
vn -0.6130 -0.0000 -0.7901
vt 0.646005 0.500000
vt 0.375000 0.500000
vt 0.646005 0.728995
vt 0.353995 0.728995
vt 0.625000 0.271005
vt 0.853995 0.500000
vt 0.375000 0.271005
vt 0.146005 0.500000
vt 0.853995 0.728995
vt 0.146005 0.728995
vt 0.125000 0.500000
vt 0.375000 0.250000
vt 0.375000 1.000000
vt 0.375000 0.000000
vt 0.125000 0.750000
vt 0.625000 0.500000
vt 0.353995 0.500000
vt 0.625000 0.250000
vt 0.875000 0.500000
vt 0.625000 0.750000
vt 0.625000 1.000000
vt 0.625000 0.000000
vt 0.875000 0.750000
vt 0.375000 0.750000
vt 0.353995 0.500000
vt 0.375000 0.271005
vt 0.146005 0.500000
vt 0.853995 0.500000
vt 0.625000 0.271005
vt 0.646005 0.500000
vt 0.146005 0.728995
vt 0.646005 0.728995
vt 0.853995 0.728995
vt 0.353995 0.728995
vt 0.853995 0.728995
vt 0.853995 0.728995
vt 0.646005 0.728995
vt 0.646005 0.728995
s 0
usemtl Material.002
f 62/83/13 61/81/13 75/105/13 74/102/13
f 72/100/14 70/96/14 71/97/14 66/89/14
f 66/90/15 71/98/15 69/94/15 65/88/15
f 59/79/16 57/77/16 76/106/16 78/108/16
f 58/78/13 67/92/13 70/96/13 72/100/13
f 61/82/16 63/85/16 79/109/16 75/104/16
f 62/84/17 64/86/17 66/91/17 65/87/17
f 68/93/18 57/77/18 67/92/18 58/78/18
f 61/81/18 62/83/18 65/88/18 69/94/18
f 59/79/16 63/85/16 71/99/16 70/96/16
f 57/77/16 59/79/16 70/96/16 67/92/16
f 64/86/17 60/80/17 72/100/17 66/91/17
f 63/85/16 61/82/16 69/95/16 71/99/16
f 60/80/17 68/93/17 58/78/17 72/100/17
f 76/106/16 75/104/16 79/109/16 78/108/16
f 74/103/17 73/101/17 80/110/17 77/107/17
f 74/102/18 75/105/18 76/106/18 73/101/18
f 64/86/16 62/84/16 74/103/16 77/107/16
f 68/93/16 60/80/16 80/110/16 73/101/16
f 60/80/16 64/86/16 77/107/16 80/110/16
f 79/109/15 63/85/15 81/111/15 82/112/15
f 57/77/15 68/93/15 73/101/15 76/106/15
f 81/111/17 83/113/17 84/114/17 82/112/17
f 59/79/13 78/108/13 84/114/13 83/113/13
f 63/85/18 59/79/18 83/113/18 81/111/18
f 78/108/14 79/109/14 82/112/14 84/114/14
